<?xml version="1.0" standalone="no"?>
<!DOCTYPE svg PUBLIC "-//W3C//DTD SVG 20010904//EN"
 "http://www.w3.org/TR/2001/REC-SVG-20010904/DTD/svg10.dtd">
<svg version="1.0" xmlns="http://www.w3.org/2000/svg"
 width="500.000000pt" height="1000.000000pt" viewBox="0 0 500.000000 1000.000000"
 preserveAspectRatio="xMidYMid meet">

<g transform="translate(0.000000,1000.000000) scale(0.100000,-0.100000)"
fill="#000000" stroke="none">
<path d="M41 9958 c-12 -28 -21 -38 -24 -28 -3 8 -8 22 -11 30 -7 21 1 -279 9
-315 5 -23 4 -26 -4 -15 -9 12 -11 10 -11 -12 0 -34 31 -54 60 -38 59 32 159
241 176 371 5 38 4 49 -7 49 -10 0 -20 -29 -32 -92 -19 -97 -71 -220 -106
-252 -19 -18 -21 -18 -21 -2 0 10 11 37 25 61 50 85 116 299 86 281 -6 -4 -11
-13 -11 -19 -1 -16 -40 -65 -40 -49 0 38 -41 -17 -58 -80 -12 -45 1 -51 17 -8
13 38 34 40 25 3 -4 -16 -16 -46 -27 -67 -17 -35 -20 -37 -29 -22 -17 30 -3
98 34 175 l34 71 -33 0 c-30 0 -36 -5 -52 -42z m9 -63 c-16 -41 -21 -25 -7 20
6 22 13 33 15 24 1 -9 -2 -28 -8 -44z m15 -295 c-3 -5 -15 -10 -26 -10 -11 0
-17 5 -14 10 3 6 15 10 26 10 11 0 17 -4 14 -10z"/>
<path d="M1040 9993 c1 -17 131 -280 153 -307 30 -38 44 -32 102 41 58 73 103
165 111 223 6 41 4 46 -15 47 -15 1 -23 -7 -31 -30 l-10 -32 5 33 c4 31 4 32
-33 32 -36 0 -38 -2 -50 -45 -15 -56 -15 -88 -1 -102 6 -6 9 -19 7 -29 -6 -34
-23 -16 -34 38 -9 45 -7 60 8 96 14 33 14 42 4 42 -8 0 -17 -10 -21 -22 l-8
-23 -4 23 c-3 17 -11 22 -34 22 -16 0 -29 -1 -29 -2 0 -2 7 -25 15 -52 21 -67
13 -68 -16 -1 -21 47 -28 55 -51 55 -16 0 -28 -5 -28 -11 0 -6 23 -60 51 -120
28 -61 49 -112 47 -115 -3 -2 -31 52 -64 121 -50 108 -74 147 -74 118z m335
-93 c-9 -27 -20 -52 -25 -55 -4 -3 1 25 13 61 12 36 23 61 25 55 2 -6 -4 -33
-13 -61z m-185 -69 c0 -21 -16 -2 -24 29 -7 24 -6 24 8 6 9 -11 16 -27 16 -35z
m58 -133 c-3 -7 -13 -13 -23 -13 -10 0 -20 6 -22 13 -3 7 5 12 22 12 17 0 25
-5 23 -12z"/>
<path d="M2337 9948 c56 -191 157 -378 204 -378 42 0 132 152 173 294 29 98
32 136 14 136 -8 0 -19 -32 -29 -83 -21 -105 -51 -183 -91 -238 -43 -59 -49
-30 -10 42 54 99 112 293 83 275 -6 -4 -11 -13 -11 -19 -1 -16 -40 -65 -40
-49 0 6 -5 12 -11 12 -10 0 -34 -50 -50 -102 -10 -38 6 -36 20 2 5 17 14 30
19 30 13 0 0 -56 -23 -99 -15 -31 -18 -32 -27 -17 -17 30 -3 100 35 175 l35
71 -37 0 c-35 0 -39 -3 -50 -40 -14 -47 -26 -45 -35 5 -5 27 -12 35 -28 35
-15 0 -18 -4 -13 -17 16 -43 46 -187 42 -206 -4 -27 -82 128 -92 186 -6 28
-12 37 -27 37 -14 0 -18 -5 -14 -17 3 -10 12 -49 21 -88 8 -38 18 -79 21 -90
12 -47 -25 35 -51 113 -30 89 -54 115 -28 30z m213 -53 c-16 -41 -21 -25 -7
20 6 22 13 33 15 24 1 -9 -2 -28 -8 -44z m-34 -248 c4 -27 1 -24 -24 23 -42
79 -50 115 -12 57 17 -26 33 -62 36 -80z m49 -47 c-3 -5 -15 -10 -26 -10 -11
0 -17 5 -14 10 3 6 15 10 26 10 11 0 17 -4 14 -10z"/>
<path d="M3540 9992 c0 -17 148 -308 163 -320 26 -22 49 -6 106 74 88 123 130
254 81 254 -13 0 -23 -10 -30 -32 l-10 -33 5 33 c4 31 4 32 -33 32 -36 0 -38
-2 -50 -45 -15 -56 -15 -88 -1 -102 12 -12 8 -48 -5 -48 -5 0 -15 23 -21 52
-10 44 -9 58 6 97 13 35 14 46 4 46 -7 0 -16 -10 -20 -22 l-8 -23 -4 23 c-3
17 -11 22 -34 22 -16 0 -29 -1 -29 -2 0 -2 7 -25 15 -52 21 -67 13 -68 -16 -1
-21 47 -28 55 -51 55 -16 0 -28 -5 -28 -11 0 -6 23 -60 51 -120 28 -61 49
-112 47 -115 -3 -2 -31 52 -64 121 -50 108 -74 146 -74 117z m330 -105 c-32
-85 -39 -76 -10 12 14 42 26 70 28 61 2 -9 -7 -42 -18 -73z m-183 -61 c-3 -6
-12 6 -21 26 -22 51 -20 60 5 19 11 -18 18 -38 16 -45z m61 -128 c-3 -7 -13
-13 -23 -13 -10 0 -20 6 -22 13 -3 7 5 12 22 12 17 0 25 -5 23 -12z"/>
<path d="M4844 9928 c26 -85 96 -248 128 -298 l23 -35 3 27 c2 14 -6 44 -16
65 -32 63 -37 94 -8 48 l26 -40 0 31 c0 17 -18 69 -39 115 -22 46 -42 101 -46
122 -5 27 -12 37 -26 37 -22 0 -23 11 16 -145 13 -49 21 -91 20 -93 -2 -2 -22
51 -45 117 -46 131 -72 166 -36 49z"/>
<path d="M4966 9978 c4 -13 13 -43 20 -68 l13 -45 0 68 c1 61 -1 67 -20 67
-17 0 -19 -4 -13 -22z"/>
<path d="M702 9472 c-7 -5 -37 -59 -67 -120 -30 -62 -56 -112 -58 -112 -3 0
-12 21 -22 48 -40 108 -93 162 -129 133 -31 -26 10 -194 102 -413 38 -91 53
-104 93 -84 54 27 149 264 149 372 0 98 -38 195 -68 176z m23 -37 c0 -19 -30
-44 -40 -33 -9 9 17 59 29 55 6 -2 11 -12 11 -22z m-247 -43 c3 -9 -3 -12 -14
-10 -16 2 -19 -3 -16 -32 5 -59 42 -172 78 -238 32 -60 44 -112 25 -112 -15 0
-111 289 -118 353 -6 57 -5 59 17 55 13 -1 25 -9 28 -16z m238 -144 c-17 -87
-59 -233 -75 -258 -31 -47 -15 27 53 249 14 46 27 100 28 120 l1 36 4 -32 c2
-18 -3 -70 -11 -115z m-195 29 c12 -37 19 -70 17 -73 -7 -6 -58 128 -58 151 0
32 17 0 41 -78z m162 6 c-8 -60 -32 -138 -48 -159 -21 -27 -19 -4 5 85 30 106
54 148 43 74z m-120 -63 c3 -11 1 -20 -4 -20 -5 0 -9 9 -9 20 0 11 2 20 4 20
2 0 6 -9 9 -20z m11 -57 c-9 -36 -12 -39 -20 -19 -7 20 1 46 16 46 6 0 8 -11
4 -27z m27 -68 c-8 -36 -9 -37 -10 -10 -1 36 12 87 16 65 2 -9 -1 -33 -6 -55z
m-1 -117 c13 -17 15 -27 8 -36 -15 -17 -38 3 -38 34 0 30 7 30 30 2z"/>
<path d="M3202 9472 c-7 -5 -38 -60 -68 -123 l-56 -114 -24 55 c-41 93 -62
125 -89 135 -39 14 -58 -15 -49 -75 8 -57 63 -225 112 -342 l37 -89 35 3 c32
3 38 9 76 75 50 88 83 186 91 267 10 106 -29 230 -65 208z m23 -37 c0 -19 -30
-44 -40 -33 -9 9 17 59 29 55 6 -2 11 -12 11 -22z m-247 -42 c2 -8 -5 -13 -17
-13 -18 0 -20 -5 -15 -32 12 -73 47 -177 80 -236 32 -60 44 -112 25 -112 -15
0 -112 291 -118 353 -6 57 -5 59 17 55 13 -1 25 -9 28 -15z m248 -72 c-10
-116 -77 -348 -96 -336 -10 6 19 115 57 220 14 40 26 95 26 127 1 32 6 58 11
58 5 0 6 -30 2 -69z m-205 -42 c12 -39 19 -72 16 -75 -5 -5 -57 129 -57 147 0
29 22 -10 41 -72z m158 -24 c-11 -64 -48 -158 -56 -138 -8 22 50 214 61 202 2
-2 0 -31 -5 -64z m-122 -42 c-3 -10 -5 -4 -5 12 0 17 2 24 5 18 2 -7 2 -21 0
-30z m19 -39 c-3 -9 -6 -23 -6 -32 -1 -12 -5 -10 -15 8 -10 19 -10 27 -2 32
20 13 30 9 23 -8z m25 -79 c-8 -36 -9 -37 -10 -10 -1 36 12 87 16 65 2 -9 -1
-33 -6 -55z m-6 -115 c3 -11 11 -20 17 -20 6 0 6 -6 -2 -15 -17 -20 -40 -2
-40 31 0 29 16 32 25 4z"/>
<path d="M1953 9428 c-4 -7 -36 -69 -69 -138 -49 -99 -63 -121 -69 -105 -29
78 -73 160 -98 181 -34 29 -40 29 -63 7 -13 -14 -15 -28 -10 -77 7 -67 88
-316 137 -420 27 -57 34 -66 58 -66 43 0 64 23 114 122 62 123 91 238 85 337
-7 116 -55 205 -85 159z m28 -59 c-33 -27 -50 -10 -26 27 16 25 18 25 33 10
16 -16 15 -19 -7 -37z m-271 -14 c12 -15 10 -17 -20 -19 -38 -3 19 -221 87
-329 18 -28 23 -50 21 -80 l-3 -42 -24 60 c-81 206 -127 377 -109 409 11 20
32 20 48 1z m290 -40 c0 -75 -85 -412 -111 -439 -23 -25 -5 68 43 212 33 103
51 175 52 209 0 28 4 49 8 47 4 -3 8 -16 8 -29z m-33 -27 c-3 -7 -5 -2 -5 12
0 14 2 19 5 13 2 -7 2 -19 0 -25z m-224 -20 c49 -135 48 -184 -1 -59 -34 87
-37 101 -23 101 4 0 15 -19 24 -42z m192 -85 c-14 -73 -51 -171 -61 -161 -7 8
26 145 48 197 10 24 20 42 23 40 2 -2 -3 -37 -10 -76z m-120 -111 c-10 -39
-17 -19 -20 55 l-3 68 15 -49 c8 -27 12 -60 8 -74z m39 -51 c-4 -28 -10 -51
-15 -51 -12 0 -11 12 2 66 15 58 22 50 13 -15z m-14 -130 c0 -5 7 -17 16 -26
12 -12 14 -19 6 -27 -23 -23 -61 14 -48 47 6 16 26 21 26 6z"/>
<path d="M4453 9428 c-4 -7 -36 -69 -70 -138 -54 -110 -63 -122 -69 -100 -4
14 -25 59 -46 101 -29 59 -45 80 -69 90 -46 18 -62 -6 -56 -83 5 -62 89 -317
138 -422 29 -62 33 -66 64 -66 41 0 58 20 114 133 57 114 85 230 79 326 -7
116 -55 205 -85 159z m42 -25 c4 -12 -1 -24 -16 -36 -31 -25 -48 -7 -25 27 19
30 31 33 41 9z m-285 -48 c13 -16 5 -20 -28 -16 -32 5 34 -232 89 -322 23 -38
29 -58 27 -91 l-3 -41 -24 60 c-82 209 -127 377 -109 409 11 20 32 20 48 1z
m290 -32 c0 -79 -71 -369 -105 -432 l-14 -26 -1 33 c0 17 23 103 51 190 28 86
52 178 52 204 1 27 5 48 10 48 4 0 7 -8 7 -17z m-239 -105 c12 -37 19 -73 17
-79 -5 -14 -68 148 -68 172 1 29 31 -26 51 -93z m206 70 c-3 -7 -5 -2 -5 12 0
14 2 19 5 13 2 -7 2 -19 0 -25z m-32 -105 c-20 -106 -77 -225 -59 -125 13 76
59 211 68 201 3 -2 -2 -37 -9 -76z m-138 -15 c-3 -8 -6 -5 -6 6 -1 11 2 17 5
13 3 -3 4 -12 1 -19z m18 -96 c-7 -27 -7 -27 -16 -4 -5 12 -6 37 -2 54 l6 33
10 -28 c5 -15 6 -40 2 -55z m39 -51 c-4 -28 -11 -51 -16 -51 -10 0 -5 47 8 93
10 34 15 10 8 -42z m-14 -130 c0 -5 7 -17 16 -25 17 -17 11 -36 -11 -36 -18 0
-38 37 -31 56 6 16 26 19 26 5z"/>
<path d="M1002 8913 c-44 -17 -54 -124 -23 -245 33 -127 96 -229 163 -264 27
-14 30 -14 57 16 34 37 136 266 157 353 21 82 7 147 -30 147 -45 0 -124 -116
-126 -185 -1 -16 -5 -39 -10 -50 -9 -21 -10 -19 -15 41 -4 44 -41 116 -83 158
-32 34 -58 42 -90 29z m66 -25 c20 -20 13 -32 -8 -13 -11 10 -23 15 -26 12
-16 -15 -20 -147 -8 -227 16 -106 16 -111 -1 -80 -42 79 -60 266 -28 302 18
21 53 24 71 6z m272 8 c0 -2 3 -12 6 -20 5 -12 2 -15 -10 -11 -9 3 -23 7 -32
10 -20 6 -8 25 17 25 10 0 19 -2 19 -4z m-19 -87 c-6 -24 -9 -28 -10 -12 -1
24 9 56 16 50 2 -3 0 -20 -6 -38z m-171 -79 c14 -46 25 -137 16 -128 -4 3 -14
39 -23 79 -8 40 -23 90 -34 111 -10 20 -19 41 -19 45 1 15 50 -73 60 -107z
m-39 -65 c23 -66 35 -165 20 -165 -6 0 -11 6 -11 13 0 8 -7 28 -15 45 -17 33
-65 214 -65 241 1 20 48 -68 71 -134z m218 71 c-11 -38 -23 -66 -25 -63 -3 3
5 35 17 71 11 37 23 65 25 63 2 -2 -5 -34 -17 -71z m-58 -73 c-12 -20 -14 -14
-5 12 4 9 9 14 11 11 3 -2 0 -13 -6 -23z m-11 -31 c0 -5 -7 -17 -15 -28 -14
-18 -14 -17 -4 9 12 27 19 34 19 19z m-151 -150 c6 -20 9 -38 7 -40 -6 -5 -50
60 -51 77 -1 9 -5 36 -9 61 l-6 45 25 -53 c13 -29 29 -70 34 -90z m105 5 c-16
-31 -34 -59 -42 -62 -7 -3 -12 -2 -10 3 8 19 73 120 76 117 2 -1 -9 -28 -24
-58z"/>
<path d="M3490 8900 c-27 -27 -34 -61 -27 -144 11 -128 70 -260 146 -327 24
-21 48 -39 53 -39 24 0 70 74 126 199 84 191 100 293 49 325 -22 14 -43 1 -84
-53 -32 -41 -46 -80 -58 -155 -8 -47 -15 -42 -20 14 -5 52 -36 114 -83 163
-41 42 -72 47 -102 17z m78 -12 c20 -20 13 -32 -8 -13 -11 10 -23 16 -26 12
-16 -16 -21 -140 -8 -223 17 -111 17 -115 -1 -82 -42 76 -60 265 -28 300 18
21 53 24 71 6z m272 8 c0 -2 3 -11 6 -20 5 -13 2 -14 -25 -5 -33 12 -33 29 0
29 10 0 19 -2 19 -4z m-19 -87 c-6 -24 -9 -28 -10 -12 -1 24 9 56 16 50 2 -3
0 -20 -6 -38z m-181 -52 c19 -43 40 -168 26 -155 -4 3 -14 39 -23 79 -8 40
-23 90 -34 111 -10 20 -19 41 -19 45 0 13 30 -35 50 -80z m-10 -169 c7 -37 10
-73 8 -80 -12 -36 -101 236 -97 295 2 30 79 -156 89 -215z m203 160 c-15 -54
-32 -91 -33 -73 0 8 11 43 35 113 2 6 7 12 9 12 3 0 -2 -24 -11 -52z m-72
-109 c-11 -24 -20 -41 -20 -37 -1 12 31 89 35 85 3 -2 -4 -24 -15 -48z m-178
-84 c13 -33 28 -73 31 -90 7 -29 7 -29 -13 -11 -21 19 -33 54 -47 131 -9 51
-2 44 29 -30z m132 -67 c-14 -29 -31 -57 -36 -62 -16 -17 -23 3 -7 21 8 10 25
37 38 60 33 60 37 45 5 -19z"/>
<path d="M2324 8845 c-25 -38 -13 -144 24 -231 59 -138 136 -286 154 -295 24
-13 38 -4 87 58 85 108 128 226 115 318 -15 112 -70 151 -126 89 -25 -28 -58
-119 -51 -143 3 -13 1 -21 -7 -21 -7 0 -10 6 -7 14 7 17 -72 178 -104 212 -29
31 -64 31 -85 -1z m36 -10 c-9 -11 -11 -36 -7 -88 7 -72 28 -140 71 -226 33
-63 56 -121 50 -121 -9 0 -111 223 -128 279 -25 85 -19 171 11 171 13 0 13 -3
3 -15z m289 -49 c10 -12 8 -15 -10 -18 -13 -2 -38 -22 -56 -46 -36 -48 -41
-48 -17 1 18 35 53 77 65 77 3 0 12 -6 18 -14z m-193 -150 c26 -75 30 -96 15
-80 -11 12 -81 199 -81 216 1 21 41 -61 66 -136z m15 68 c12 -25 19 -48 16
-50 -2 -2 -14 18 -25 46 -26 63 -18 66 9 4z m196 -21 c-4 -37 -10 -70 -15 -75
-4 -4 -6 8 -4 27 2 19 0 41 -6 48 -5 6 -10 24 -10 40 0 20 5 27 21 27 19 0 19
-4 14 -67z m-57 15 c0 -19 -18 -43 -25 -36 -4 3 -2 16 5 27 12 24 20 27 20 9z
m-47 -125 c-5 -56 -3 -74 5 -69 17 10 15 -16 -2 -39 -13 -17 -15 -14 -26 39
-10 50 -10 64 5 102 9 24 18 44 21 44 2 0 1 -34 -3 -77z m113 5 c-9 -29 -23
-64 -32 -78 -10 -16 -13 -18 -8 -5 4 11 17 48 28 82 25 75 34 76 12 1z m-197
-98 c0 -13 -1 -13 -8 0 -5 8 -12 26 -15 40 l-7 25 15 -25 c9 -14 15 -32 15
-40z m59 -120 c15 0 15 -1 0 -17 -14 -13 -20 -14 -32 -3 -21 16 -20 34 0 26 9
-3 23 -6 32 -6z"/>
<path d="M4829 8854 c-23 -28 -23 -123 -1 -189 23 -68 149 -332 162 -340 5 -3
9 78 10 180 l1 186 -37 70 c-52 98 -102 133 -135 93z m30 -26 c-26 -48 3 -184
65 -307 32 -63 56 -121 50 -121 -14 0 -128 262 -137 315 -12 70 -3 135 19 135
12 0 13 -4 3 -22z m106 -217 c9 -29 14 -55 12 -57 -8 -9 -88 195 -86 220 1 17
56 -103 74 -163z m19 59 l7 -25 -14 25 c-8 14 -17 36 -21 50 l-7 25 14 -25 c8
-14 17 -36 21 -50z m-5 -190 c0 -13 -1 -13 -8 0 -5 8 -12 26 -15 40 l-7 25 15
-25 c9 -14 15 -32 15 -40z"/>
<path d="M114 8810 c-41 -16 -98 -127 -87 -169 3 -13 1 -21 -7 -21 -7 0 -10 6
-7 13 3 8 1 20 -4 28 -6 9 -8 -45 -7 -141 3 -153 3 -154 27 -160 21 -5 22 -7
8 -19 -9 -7 -21 -10 -27 -6 -5 3 -10 2 -10 -4 0 -15 16 -22 34 -15 24 9 121
152 147 215 53 130 10 308 -67 279z m36 -25 c10 -13 9 -15 -8 -15 -13 0 -32
-15 -48 -37 -43 -59 -47 -61 -29 -18 16 39 51 85 66 85 3 0 12 -7 19 -15z m17
-97 c-3 -35 -10 -74 -16 -88 -8 -20 -9 -15 -4 22 3 27 1 53 -5 60 -5 7 -10 25
-10 41 0 20 5 27 21 27 18 0 19 -5 14 -62z m-66 -21 c-17 -17 -24 -1 -10 25
12 21 14 21 17 4 2 -10 -1 -23 -7 -29z m-38 -94 c-5 -56 -3 -74 5 -69 17 10
15 -16 -2 -39 -13 -17 -15 -14 -26 39 -10 50 -10 64 5 102 9 24 18 44 21 44 2
0 1 -34 -3 -77z m113 5 c-9 -29 -23 -64 -32 -78 -10 -17 -13 -18 -8 -5 4 11
16 48 28 82 25 75 34 76 12 1z"/>
<path d="M680 8318 c-16 -29 -42 -84 -57 -122 l-27 -68 -17 49 c-23 68 -43
104 -74 136 -36 35 -59 34 -75 -3 -18 -45 -7 -113 39 -236 50 -132 90 -204
124 -224 24 -13 28 -13 52 10 34 32 99 166 121 250 22 87 23 186 1 228 -26 48
-51 42 -87 -20z m75 12 c8 -16 15 -37 14 -47 0 -14 -2 -13 -9 5 -11 25 -42 29
-60 7 -23 -27 -23 -7 0 29 26 44 35 45 55 6z m-276 -10 c10 -5 21 -17 25 -25
3 -10 2 -13 -5 -10 -14 9 -39 -14 -39 -37 0 -10 11 -64 25 -120 14 -56 23
-103 21 -105 -6 -6 -55 139 -67 197 -7 39 -7 63 0 83 12 30 14 31 40 17z m236
-148 c-11 -28 -20 -40 -25 -32 -12 20 -27 4 -44 -47 -18 -52 -13 -72 6 -27 11
27 12 27 15 7 5 -24 -22 -83 -37 -83 -6 0 -10 18 -10 40 0 27 15 69 53 142 45
89 52 99 55 74 2 -16 -4 -49 -13 -74z m32 -24 c-19 -107 -49 -184 -86 -228
l-30 -35 8 30 c5 17 23 59 40 95 35 76 61 168 62 225 0 36 2 38 11 18 8 -16 7
-44 -5 -105z m-218 79 c18 -30 37 -97 55 -196 5 -28 4 -32 -8 -22 -21 18 -73
148 -81 204 -9 56 4 62 34 14z m87 -123 c-4 -9 -9 -15 -11 -12 -3 3 -3 13 1
22 4 9 9 15 11 12 3 -3 3 -13 -1 -22z m-52 -138 c14 -25 26 -53 26 -63 -1 -20
-21 12 -46 74 -20 46 -11 41 20 -11z m71 -96 c-3 -5 -13 -10 -21 -10 -8 0 -14
5 -14 10 0 6 9 10 21 10 11 0 17 -4 14 -10z"/>
<path d="M3180 8318 c-16 -29 -42 -84 -57 -122 l-27 -68 -17 49 c-34 99 -81
163 -121 163 -22 0 -38 -36 -38 -85 0 -84 118 -370 166 -401 24 -16 27 -16 52
3 36 26 106 166 128 256 22 92 23 182 0 225 -25 48 -50 42 -86 -20z m76 7 c7
-19 14 -40 13 -47 0 -7 -4 -3 -9 10 -11 25 -42 29 -60 7 -7 -9 -15 -13 -18
-11 -6 7 38 76 49 76 6 0 17 -16 25 -35z m-277 -5 c27 -14 35 -39 11 -33 -33
9 -35 -38 -6 -154 14 -58 24 -108 22 -110 -5 -6 -54 134 -66 190 -9 42 -6 86
7 110 5 9 11 9 32 -3z m236 -148 c-11 -28 -20 -40 -25 -32 -12 20 -27 4 -44
-47 -18 -52 -13 -72 6 -27 11 27 12 27 15 7 5 -24 -22 -83 -37 -83 -6 0 -10
18 -10 40 0 27 15 69 53 142 45 89 52 99 55 74 2 -16 -4 -49 -13 -74z m-185
53 c20 -32 65 -214 55 -223 -14 -15 -79 136 -90 211 -9 57 4 62 35 12z m230 7
c0 -35 -21 -138 -41 -199 -20 -60 -75 -150 -86 -140 -3 3 13 45 35 94 43 92
72 188 72 235 0 15 5 28 10 28 6 0 10 -8 10 -18z m-144 -128 c-4 -9 -9 -15
-11 -12 -3 3 -3 13 1 22 4 9 9 15 11 12 3 -3 3 -13 -1 -22z m-52 -138 c14 -25
26 -53 26 -63 -1 -20 -21 12 -46 74 -20 46 -11 41 20 -11z m71 -97 c-7 -11
-35 -12 -35 -1 0 4 9 8 20 9 11 1 18 -2 15 -8z"/>
<path d="M1888 8323 c-38 -42 -68 -107 -77 -171 -7 -52 -8 -54 -15 -27 -14 56
-40 110 -74 152 -64 81 -118 65 -109 -33 6 -59 31 -120 106 -259 57 -105 104
-165 131 -165 45 0 126 127 154 241 18 75 21 192 5 238 -20 57 -79 68 -121 24z
m87 -3 c10 -11 21 -40 25 -64 8 -55 -5 -179 -24 -231 -15 -39 -15 -36 -9 66 3
66 2 109 -4 112 -6 4 -8 18 -5 32 5 27 -15 85 -29 85 -4 0 -12 -8 -18 -17 -5
-10 -13 -14 -18 -10 -9 10 32 47 52 47 6 0 20 -9 30 -20z m-295 -20 c0 -11
-41 -31 -49 -24 -2 2 -1 10 2 19 7 17 47 21 47 5z m-11 -85 l0 -20 -9 20 c-5
11 -9 27 -9 35 -1 13 0 13 9 0 5 -8 9 -24 9 -35z m202 7 c-5 -10 -16 -58 -22
-105 -7 -48 -17 -87 -21 -87 -10 0 -10 12 2 86 10 64 37 140 46 131 3 -3 1
-14 -5 -25z m54 -108 c-9 -54 -22 -112 -30 -128 -8 -16 -15 -38 -15 -48 0 -11
-5 -16 -11 -13 -18 12 2 144 34 235 37 101 44 88 22 -46z m-236 -28 c-1 -16
-48 86 -48 104 0 8 11 -9 25 -39 13 -29 24 -59 23 -65z m46 -16 c14 -27 23
-50 20 -50 -2 0 -16 23 -30 50 -14 28 -23 50 -20 50 2 0 16 -22 30 -50z m208
-72 c-6 -65 -44 -152 -51 -115 -3 16 45 177 53 177 2 0 1 -28 -2 -62z m-112
-120 c14 -20 16 -28 7 -28 -13 0 -26 16 -61 80 l-19 35 27 -30 c14 -16 35 -42
46 -57z"/>
<path d="M4385 8319 c-41 -49 -67 -109 -75 -169 -6 -50 -7 -52 -14 -25 -33
133 -133 243 -173 190 -34 -48 -4 -149 98 -333 63 -112 102 -162 129 -162 20
0 83 65 105 109 49 98 78 256 61 343 -15 79 -83 103 -131 47z m95 -6 c21 -26
22 -36 17 -138 -2 -60 -11 -128 -19 -150 -14 -38 -15 -35 -14 95 1 162 -21
239 -53 183 -5 -10 -13 -14 -18 -10 -9 10 32 47 52 47 8 0 23 -12 35 -27z
m-302 -12 c10 -6 6 -11 -17 -19 -28 -10 -31 -9 -31 9 0 20 24 25 48 10z m-8
-86 c0 -17 -2 -17 -10 -5 -5 8 -10 24 -10 35 0 17 2 17 10 5 5 -8 10 -24 10
-35z m201 7 c-6 -11 -16 -61 -22 -111 -9 -65 -15 -87 -22 -76 -16 29 31 230
49 212 3 -3 1 -14 -5 -25z m64 -39 c-9 -79 -35 -196 -46 -207 -5 -6 -9 -21 -9
-34 0 -14 -4 -21 -11 -17 -17 11 1 143 33 233 17 45 32 82 35 82 3 0 2 -26 -2
-57z m-246 -96 c-1 -16 -48 84 -48 103 -1 8 10 -9 24 -38 14 -30 25 -59 24
-65z m46 -17 c14 -27 23 -50 20 -50 -2 0 -16 23 -30 50 -14 28 -23 50 -20 50
2 0 16 -22 30 -50z m207 -72 c-4 -65 -43 -153 -50 -115 -3 14 45 177 52 177 1
0 0 -28 -2 -62z m-132 -93 c42 -54 51 -87 13 -46 -20 22 -67 101 -60 101 3 0
24 -25 47 -55z"/>
<path d="M1036 7704 c-23 -23 -21 -130 4 -204 26 -76 136 -299 159 -324 28
-28 50 -14 108 68 83 115 98 155 98 263 0 77 -3 96 -21 120 -27 36 -59 41 -89
13 -29 -27 -68 -115 -61 -138 3 -9 1 -24 -4 -32 -8 -12 -10 -9 -10 11 0 15
-18 63 -40 106 -60 120 -105 156 -144 117z m37 -11 c-41 -16 -15 -170 50 -307
58 -119 69 -164 16 -62 -74 143 -99 217 -99 293 0 73 4 83 29 82 10 0 11 -2 4
-6z m287 -64 c0 -5 -6 -9 -14 -9 -8 0 -31 -19 -50 -42 -20 -23 -36 -37 -36
-32 0 14 40 77 57 91 16 12 43 7 43 -8z m-211 -109 c15 -41 31 -88 35 -105 5
-27 4 -27 -15 10 -12 21 -32 70 -45 109 -42 123 -24 113 25 -14z m37 15 c8
-19 10 -35 6 -35 -5 0 -14 17 -21 38 -7 20 -15 44 -17 52 -8 25 16 -17 32 -55z
m191 35 c2 -14 -3 -50 -11 -80 l-13 -55 -1 45 c0 25 -4 62 -7 83 -7 35 -5 39
11 35 12 -2 20 -13 21 -28z m-71 -48 c-22 -23 -29 -10 -9 18 11 16 18 19 21
11 2 -7 -3 -20 -12 -29z m-37 -86 c-10 -46 -10 -61 1 -80 14 -26 6 -66 -10
-50 -19 19 -23 118 -6 158 22 54 30 39 15 -28z m106 -34 c-28 -74 -37 -72 -12
2 12 37 23 62 25 56 2 -6 -4 -33 -13 -58z m-188 -76 c-3 -6 -12 6 -21 26 -22
51 -20 60 5 19 11 -18 18 -38 16 -45z m61 -128 c-3 -7 -13 -13 -23 -13 -10 0
-20 6 -22 13 -3 7 5 12 22 12 17 0 25 -5 23 -12z"/>
<path d="M3530 7701 c-17 -32 -12 -137 10 -201 26 -77 136 -300 160 -324 10
-10 25 -16 34 -13 24 9 104 116 139 187 43 87 50 196 17 265 -18 38 -26 45
-50 45 -16 0 -36 -8 -46 -17 -26 -26 -66 -120 -60 -140 3 -10 1 -25 -4 -33 -8
-12 -10 -10 -10 10 0 35 -61 159 -100 203 -36 41 -73 49 -90 18z m33 -30 c-15
-26 -15 -35 -1 -108 10 -48 36 -123 68 -192 29 -62 50 -114 48 -117 -7 -6
-108 210 -125 265 -13 46 -18 163 -6 174 3 4 12 7 19 7 10 0 9 -7 -3 -29z
m295 -39 c2 -7 -3 -12 -11 -12 -9 0 -32 -19 -51 -42 -40 -46 -47 -41 -15 12
33 55 66 74 77 42z m-193 -156 c14 -43 24 -80 22 -83 -9 -8 -88 192 -87 220 1
23 40 -58 65 -137z m21 59 c8 -19 12 -35 9 -35 -6 0 -45 87 -45 98 1 10 19
-22 36 -63z m192 30 c1 -16 -4 -52 -12 -80 l-14 -50 1 45 c0 25 -5 62 -11 83
-10 36 -9 38 11 35 16 -2 23 -11 25 -33z m-72 -43 c-22 -23 -29 -10 -9 18 11
16 18 19 21 11 2 -7 -3 -20 -12 -29z m-35 -74 c-14 -40 -14 -74 1 -97 13 -22
3 -60 -13 -44 -20 20 -22 115 -4 158 19 45 33 31 16 -17z m99 -50 c-11 -24
-18 -34 -14 -23 3 11 11 40 17 65 8 31 13 38 15 23 2 -12 -6 -41 -18 -65z
m-180 -76 c-1 -20 -23 18 -35 58 -5 21 -3 20 14 -8 12 -18 21 -40 21 -50z
m151 5 c-10 -9 -11 -8 -5 6 3 10 9 15 12 12 3 -3 0 -11 -7 -18z m-93 -129 c-3
-7 -13 -13 -23 -13 -10 0 -20 6 -22 13 -3 7 5 12 22 12 17 0 25 -5 23 -12z"/>
<path d="M135 7660 c-26 -40 -86 -173 -100 -219 -7 -25 -20 -19 -28 14 -7 30
1 -275 8 -310 5 -23 4 -26 -4 -15 -9 12 -11 10 -11 -12 0 -34 31 -54 60 -38
47 25 115 151 156 287 35 117 39 242 8 293 -29 51 -57 51 -89 0z m73 3 c6 -10
13 -34 16 -53 7 -34 7 -34 -6 -10 -18 33 -45 37 -74 9 -31 -29 -30 -19 1 31
27 43 49 51 63 23z m-32 -157 c-6 -38 -45 -106 -46 -78 0 39 -40 -19 -60 -89
-11 -38 5 -37 19 1 13 38 34 40 25 3 -4 -16 -16 -46 -26 -67 -15 -30 -22 -36
-29 -25 -25 40 0 125 73 254 44 77 55 77 44 1z m13 -134 c-22 -90 -67 -188
-100 -218 -18 -16 -19 -16 -19 0 0 10 11 37 25 61 40 67 82 193 97 286 l13 84
3 -63 c2 -40 -5 -95 -19 -150z m-125 71 c-11 -44 -24 -76 -29 -71 -5 5 24 98
31 98 2 0 1 -12 -2 -27z m1 -343 c-3 -5 -15 -10 -26 -10 -11 0 -17 5 -14 10 3
6 15 10 26 10 11 0 17 -4 14 -10z"/>
<path d="M2653 7688 c-17 -21 -99 -189 -113 -231 -6 -21 -14 -36 -17 -33 -3 3
-16 35 -28 71 -30 85 -97 175 -130 175 -30 0 -49 -40 -48 -103 1 -145 160
-497 224 -497 43 0 139 167 180 315 31 108 32 227 3 275 -21 37 -54 50 -71 28z
m55 -25 c6 -10 13 -34 16 -53 7 -34 7 -34 -6 -10 -18 33 -45 37 -74 9 -31 -29
-31 -13 1 34 28 40 49 47 63 20z m-308 -38 l23 -25 -21 0 c-43 0 -46 -35 -14
-176 17 -71 33 -138 36 -149 14 -46 -29 56 -56 135 -34 98 -45 173 -29 213 13
34 31 34 61 2z m276 -119 c-6 -38 -45 -106 -46 -78 0 25 -22 11 -37 -25 -23
-56 -33 -93 -24 -93 5 0 14 14 21 30 7 17 16 30 20 30 11 0 -3 -59 -24 -99
-14 -26 -20 -31 -27 -20 -25 40 0 126 73 253 44 75 55 76 44 2z m20 -108 c-22
-93 -52 -170 -88 -219 -45 -62 -46 -32 -4 56 50 101 73 171 88 268 l13 82 3
-61 c2 -34 -4 -91 -12 -126z m-256 138 c25 -41 72 -220 67 -256 -3 -20 -11 -8
-44 60 -41 86 -63 158 -63 204 0 36 14 32 40 -8z m110 -141 c-16 -41 -21 -25
-7 20 6 22 13 33 15 24 1 -9 -2 -28 -8 -44z m-34 -248 c4 -27 1 -24 -24 23
-42 79 -50 115 -12 57 17 -26 33 -62 36 -80z m49 -47 c-3 -5 -15 -10 -26 -10
-11 0 -17 5 -14 10 3 6 15 10 26 10 11 0 17 -4 14 -10z"/>
<path d="M4834 7649 c-44 -49 -6 -224 95 -435 27 -56 54 -104 60 -108 19 -12
12 38 -14 98 -32 71 -31 82 0 31 l25 -40 0 33 c0 18 -15 63 -34 101 -36 70
-66 169 -66 215 0 64 44 4 77 -104 l22 -75 0 63 c1 74 -28 145 -82 205 -40 42
-56 46 -83 16z m66 -24 l23 -25 -21 0 c-43 0 -46 -35 -14 -176 17 -71 29 -130
27 -132 -5 -5 -53 129 -70 193 -17 69 -19 104 -5 139 12 33 30 33 60 1z"/>
<path d="M698 6966 c-9 -8 -40 -65 -69 -126 l-53 -111 -23 61 c-45 121 -104
174 -133 120 -16 -30 4 -123 57 -270 73 -203 82 -220 120 -220 38 0 58 25 109
134 38 83 64 180 64 243 0 60 -19 139 -39 164 -16 20 -18 20 -33 5z m27 -31
c0 -19 -30 -44 -40 -33 -9 9 17 59 29 55 6 -2 11 -12 11 -22z m-247 -43 c3 -9
-3 -12 -14 -10 -16 2 -19 -3 -16 -32 5 -59 42 -172 78 -238 32 -60 44 -112 25
-112 -15 0 -112 291 -118 353 -6 57 -5 59 17 55 13 -1 25 -9 28 -16z m248 -71
c-7 -80 -46 -236 -75 -301 -19 -44 -20 -44 -20 -14 -1 17 17 85 40 150 26 77
41 139 42 176 1 32 6 58 11 58 5 0 6 -30 2 -69z m-205 -44 c12 -37 19 -70 17
-73 -7 -6 -58 128 -58 151 0 32 17 0 41 -78z m158 -13 c-13 -69 -28 -116 -45
-144 -15 -25 -15 -24 -10 16 8 56 45 174 55 174 5 0 5 -21 0 -46z m-107 -112
c-7 -36 -15 -17 -18 41 l-3 52 12 -35 c7 -19 11 -45 9 -58z m29 -57 c-8 -36
-9 -37 -10 -10 -1 36 12 87 16 65 2 -9 -1 -33 -6 -55z m-6 -115 c3 -11 11 -20
18 -20 8 0 8 -3 0 -11 -18 -18 -43 -2 -43 26 0 30 16 33 25 5z"/>
<path d="M3136 6853 c-55 -110 -59 -116 -69 -93 -52 125 -83 170 -117 170 -33
0 -44 -35 -30 -103 13 -67 74 -247 118 -344 25 -58 29 -62 59 -63 38 0 58 25
109 134 65 141 80 284 40 380 -26 63 -45 49 -110 -81z m92 84 c3 -15 -34 -44
-44 -34 -3 2 1 16 7 31 13 28 32 30 37 3z m-250 -44 c2 -8 -5 -13 -17 -13 -18
0 -20 -5 -15 -32 12 -73 47 -177 80 -236 32 -60 44 -112 25 -112 -15 0 -112
291 -118 353 -6 57 -5 59 17 55 13 -1 25 -9 28 -15z m248 -72 c-10 -111 -75
-341 -96 -341 -11 0 5 66 51 213 27 82 40 139 37 162 -2 19 0 35 5 35 6 0 7
-28 3 -69z m-205 -44 c12 -37 19 -70 17 -73 -7 -6 -58 128 -58 151 0 32 17 0
41 -78z m154 -34 c-13 -68 -54 -166 -55 -132 -1 42 54 218 65 207 2 -2 -3 -35
-10 -75z m-118 -35 c-3 -7 -5 -2 -5 12 0 14 2 19 5 13 2 -7 2 -19 0 -25z m19
-34 c-3 -9 -6 -23 -6 -32 -1 -15 -2 -15 -11 1 -12 21 -5 47 12 47 6 0 8 -7 5
-16z m25 -74 c-7 -36 -9 -39 -10 -15 -1 33 11 85 16 70 1 -6 -1 -30 -6 -55z
m-6 -120 c3 -11 11 -20 18 -20 8 0 8 -3 0 -11 -18 -18 -43 -2 -43 26 0 30 16
33 25 5z"/>
<path d="M1960 6930 c-8 -5 -43 -67 -77 -137 -54 -112 -62 -125 -69 -103 -4
14 -25 59 -46 101 -41 83 -72 108 -110 88 -18 -10 -20 -18 -16 -73 6 -66 76
-284 134 -416 30 -69 35 -75 64 -78 43 -5 59 12 114 121 80 160 105 310 70
428 -22 76 -34 88 -64 69z m21 -61 c-33 -27 -50 -10 -26 27 16 25 18 25 33 10
16 -16 15 -19 -7 -37z m-271 -14 c13 -16 5 -20 -28 -16 -28 4 15 -172 70 -287
17 -34 34 -65 39 -68 5 -3 9 -26 8 -52 l-1 -47 -19 40 c-10 22 -41 108 -68
190 -45 135 -55 183 -52 238 1 21 34 23 51 2z m285 -72 c-15 -128 -75 -357
-105 -403 -26 -40 -6 63 41 208 28 86 51 178 52 204 1 27 6 48 11 48 4 0 5
-26 1 -57z m-28 5 c-3 -7 -5 -2 -5 12 0 14 2 19 5 13 2 -7 2 -19 0 -25z m-219
-32 c21 -55 40 -136 29 -126 -7 7 -67 158 -67 170 0 27 20 4 38 -44z m195 -33
c-11 -83 -56 -213 -69 -200 -12 12 52 237 67 237 4 0 5 -17 2 -37z m-128 -152
c-9 -38 -16 -18 -19 55 l-4 69 14 -50 c8 -27 12 -61 9 -74z m40 -51 c-4 -33
-11 -48 -17 -42 -6 6 -5 26 3 56 15 60 23 52 14 -14z m-15 -129 c0 -5 7 -17
16 -25 17 -17 11 -36 -11 -36 -18 0 -38 37 -31 56 6 16 26 19 26 5z"/>
<path d="M4458 6928 c-9 -7 -44 -69 -77 -138 -52 -109 -61 -122 -67 -100 -4
14 -25 59 -46 101 -29 59 -45 80 -69 90 -46 18 -62 -6 -56 -83 5 -60 90 -320
139 -425 28 -58 32 -63 62 -63 41 0 54 15 109 122 88 172 110 346 59 461 -22
50 -29 54 -54 35z m37 -25 c4 -12 -1 -24 -16 -36 -31 -25 -48 -7 -25 27 19 30
31 33 41 9z m-285 -48 c13 -16 5 -20 -28 -16 -31 5 17 -178 79 -304 29 -57 39
-89 37 -115 -3 -35 -3 -35 -27 25 -85 217 -127 376 -109 409 11 20 32 20 48 1z
m277 -127 c-18 -114 -58 -261 -88 -323 l-19 -40 5 49 c3 28 26 113 51 190 29
89 47 160 47 193 1 33 5 49 11 43 5 -5 3 -48 -7 -112z m-20 60 c-3 -7 -5 -2
-5 12 0 14 2 19 5 13 2 -7 2 -19 0 -25z m-224 -20 c49 -135 48 -184 -1 -59
-34 87 -37 101 -23 101 4 0 15 -19 24 -42z m192 -85 c-14 -74 -51 -171 -61
-161 -8 8 33 173 52 209 8 17 17 29 19 27 2 -2 -3 -36 -10 -75z m-138 -15 c-3
-8 -6 -5 -6 6 -1 11 2 17 5 13 3 -3 4 -12 1 -19z m18 -106 c-6 -15 -8 -15 -15
3 -4 11 -5 36 -2 55 l6 35 9 -38 c5 -20 6 -45 2 -55z m39 -41 c-4 -32 -10 -49
-16 -43 -5 5 -4 28 3 56 15 60 22 53 13 -13z m-14 -130 c0 -5 7 -17 16 -25 17
-17 11 -36 -11 -36 -18 0 -38 37 -31 56 6 16 26 19 26 5z"/>
<path d="M989 6401 c-49 -39 -31 -222 36 -358 33 -66 111 -153 137 -153 22 0
65 66 114 173 71 154 86 202 88 268 2 94 -38 116 -94 53 -37 -42 -70 -113 -71
-152 0 -15 -4 -36 -9 -47 -9 -21 -10 -20 -15 40 -4 48 -31 101 -76 149 -46 51
-73 57 -110 27z m79 -13 c20 -20 13 -32 -8 -13 -11 10 -23 15 -27 11 -17 -16
-18 -186 -2 -264 6 -30 9 -56 6 -58 -14 -15 -50 119 -55 204 -4 79 -2 95 13
112 20 22 55 26 73 8z m272 8 c0 -2 3 -11 6 -20 5 -13 2 -14 -25 -5 -33 12
-33 29 0 29 10 0 19 -2 19 -4z m-19 -87 l-9 -34 -1 31 c-1 17 2 34 6 37 12 13
14 -1 4 -34z m-182 -48 c20 -47 41 -173 27 -159 -4 3 -14 39 -23 79 -8 40 -24
91 -35 113 -15 29 -17 37 -6 28 9 -7 25 -34 37 -61z m-9 -173 c15 -89 8 -104
-19 -44 -24 51 -72 226 -70 255 2 34 78 -147 89 -211z m195 132 c-9 -28 -19
-49 -22 -47 -2 3 4 28 13 56 24 65 31 58 9 -9z m-59 -67 c-8 -15 -15 -25 -16
-21 0 12 23 58 27 54 3 -2 -2 -17 -11 -33z m-157 -171 c6 -20 9 -38 7 -40 -6
-5 -50 60 -51 77 -1 9 -5 36 -9 61 l-6 45 25 -53 c13 -29 29 -70 34 -90z m118
31 c-25 -56 -48 -93 -58 -93 -11 0 0 24 39 83 29 44 36 47 19 10z"/>
<path d="M3502 6413 c-65 -26 -49 -238 30 -384 28 -54 107 -139 129 -139 36 0
177 280 198 395 13 66 5 112 -22 129 -46 29 -122 -83 -142 -208 -8 -47 -15
-42 -20 13 -5 55 -37 119 -81 165 -33 34 -59 42 -92 29z m66 -25 c20 -20 13
-32 -8 -13 -11 10 -23 15 -27 11 -16 -16 -17 -172 -2 -260 6 -32 8 -60 6 -63
-3 -2 -15 22 -27 54 -31 80 -40 241 -16 266 20 20 57 22 74 5z m272 8 c0 -2 3
-11 6 -20 5 -13 2 -14 -25 -5 -33 12 -33 29 0 29 10 0 19 -2 19 -4z m-19 -97
c-10 -23 -10 -23 -10 7 -1 17 2 34 7 38 11 12 14 -18 3 -45z m-188 -26 c23
-53 49 -187 33 -171 -4 3 -14 39 -23 79 -8 40 -23 90 -34 111 -11 21 -15 38
-11 38 5 0 21 -26 35 -57z m-3 -185 c15 -89 8 -104 -19 -44 -24 51 -72 226
-70 255 2 34 78 -147 89 -211z m203 160 c-15 -54 -32 -91 -33 -73 0 8 11 43
35 113 2 6 7 12 9 12 3 0 -2 -24 -11 -52z m-62 -85 c-12 -20 -14 -14 -5 12 4
9 9 14 11 11 3 -2 0 -13 -6 -23z m-20 -50 c-12 -20 -14 -14 -5 12 4 9 9 14 11
11 3 -2 0 -13 -6 -23z m-142 -131 c6 -20 9 -38 7 -40 -7 -6 -50 57 -51 75 -1
10 -5 38 -9 63 l-6 45 25 -53 c13 -29 29 -70 34 -90z m101 -2 c-17 -33 -35
-60 -40 -60 -6 0 -10 2 -10 5 0 7 72 115 77 115 2 0 -10 -27 -27 -60z"/>
<path d="M2330 6355 c-19 -23 -24 -97 -10 -157 11 -47 39 -112 135 -311 29
-60 52 -81 79 -71 24 9 126 158 147 214 30 78 34 141 14 205 -12 36 -27 63
-42 72 -22 15 -26 15 -51 -4 -34 -24 -76 -108 -75 -150 1 -18 -4 -33 -9 -33
-6 0 -8 6 -5 13 7 18 -63 164 -97 205 -30 35 -65 42 -86 17z m32 -17 c-15 -15
-15 -97 -1 -158 5 -24 28 -83 51 -130 54 -115 69 -150 63 -150 -18 0 -133 268
-141 330 -9 65 2 120 23 120 13 0 14 -3 5 -12z m288 -53 c10 -13 9 -15 -8 -15
-12 0 -32 -15 -48 -35 -15 -20 -29 -34 -31 -31 -11 10 50 96 68 96 3 0 12 -7
19 -15z m-194 -149 c28 -80 30 -104 7 -61 -20 38 -73 181 -73 198 1 20 41 -63
66 -137z m28 34 c3 -14 -5 -2 -18 25 -14 28 -25 55 -25 60 0 15 36 -56 43 -85z
m185 38 c0 -24 -7 -65 -14 -93 l-13 -50 5 52 c3 30 1 58 -5 65 -5 7 -10 25
-10 41 0 20 5 27 19 27 16 0 19 -7 18 -42z m-63 -33 c-3 -8 -12 -15 -21 -15
-14 0 -13 3 2 26 17 26 30 18 19 -11z m-43 -102 c-5 -56 -3 -74 5 -69 17 10
15 -16 -2 -39 -13 -17 -15 -14 -26 39 -10 50 -10 64 5 102 9 24 18 44 21 44 2
0 1 -34 -3 -77z m113 5 c-9 -29 -23 -64 -32 -78 -10 -17 -13 -18 -8 -5 4 11
16 48 28 82 25 75 34 76 12 1z m-197 -98 c0 -13 -1 -13 -8 0 -5 8 -12 26 -15
40 l-7 25 15 -25 c9 -14 15 -32 15 -40z m57 -138 c-12 -13 -18 -13 -30 -2 -24
19 -19 27 15 22 28 -4 29 -6 15 -20z"/>
<path d="M4826 6348 c-23 -33 -20 -109 8 -191 24 -71 137 -312 155 -330 5 -5
9 65 10 180 l1 188 -40 72 c-56 101 -101 128 -134 81z m33 -20 c-7 -14 -10
-46 -6 -90 6 -66 16 -96 101 -280 35 -77 24 -74 -15 5 -58 114 -98 217 -105
267 -8 63 2 120 22 120 12 0 13 -4 3 -22z m97 -192 c28 -80 30 -104 7 -61 -20
38 -73 181 -73 198 1 20 41 -63 66 -137z m28 34 l7 -25 -14 25 c-8 14 -17 36
-21 50 l-7 25 14 -25 c8 -14 17 -36 21 -50z m-5 -190 c0 -13 -1 -13 -8 0 -5 8
-12 26 -15 40 l-7 25 15 -25 c9 -14 15 -32 15 -40z"/>
<path d="M98 6300 c-33 -25 -71 -106 -71 -147 1 -40 -14 -44 -20 -5 -2 15 -5
-44 -6 -130 l-1 -158 26 0 c23 0 25 -2 14 -15 -7 -9 -19 -14 -27 -11 -15 6
-18 -10 -3 -19 46 -28 199 230 200 336 0 54 -28 136 -53 154 -27 19 -29 19
-59 -5z m52 -15 c10 -12 9 -15 -8 -15 -12 0 -36 -18 -57 -42 l-36 -43 17 35
c17 37 52 80 65 80 3 0 12 -7 19 -15z m17 -102 c-4 -37 -10 -70 -15 -75 -4 -4
-6 8 -4 27 2 19 0 41 -6 48 -5 6 -10 24 -10 40 0 20 5 27 21 27 19 0 19 -4 14
-67z m-62 -2 c-3 -12 -13 -21 -21 -21 -12 0 -12 4 2 25 19 29 29 27 19 -4z
m-42 -108 c-5 -56 -3 -74 5 -69 17 10 15 -16 -2 -39 -13 -17 -15 -14 -26 39
-10 50 -10 64 5 102 9 24 18 44 21 44 2 0 1 -34 -3 -77z m113 5 c-9 -29 -21
-60 -27 -68 -9 -12 -10 -11 -4 5 4 11 14 43 23 72 9 29 18 51 20 48 2 -2 -3
-27 -12 -57z"/>
<path d="M680 5818 c-16 -29 -42 -84 -56 -122 l-27 -69 -23 63 c-58 161 -154
205 -154 72 0 -90 116 -376 166 -408 24 -16 27 -16 52 3 36 27 106 165 127
253 23 95 24 186 2 228 -26 48 -51 42 -87 -20z m76 7 c7 -19 14 -40 13 -47 0
-7 -4 -3 -9 10 -11 25 -42 29 -60 7 -7 -9 -15 -13 -18 -11 -6 7 38 76 49 76 6
0 17 -16 25 -35z m-267 -11 l23 -16 -24 -12 c-32 -16 -32 -36 -4 -156 14 -57
23 -106 22 -108 -2 -1 -15 30 -30 70 -29 82 -48 170 -41 193 3 8 7 22 10 30 6
19 15 19 44 -1z m226 -142 c-11 -28 -20 -40 -25 -32 -12 20 -27 4 -44 -47 -18
-52 -13 -72 6 -27 11 27 12 27 15 7 5 -24 -22 -83 -37 -83 -6 0 -10 18 -10 40
0 27 15 69 53 142 45 89 52 99 55 74 2 -16 -4 -49 -13 -74z m-185 53 c20 -32
66 -222 57 -231 -8 -9 -67 115 -82 171 -26 100 -15 125 25 60z m225 -39 c-13
-112 -65 -249 -109 -285 -23 -19 -15 9 28 99 39 82 66 176 66 228 0 21 4 31
11 26 7 -4 8 -27 4 -68z m-139 -82 c-4 -9 -9 -15 -11 -12 -3 3 -3 13 1 22 4 9
9 15 11 12 3 -3 3 -13 -1 -22z m-25 -191 c5 -13 5 -23 0 -23 -8 0 -61 109 -61
126 0 11 48 -72 61 -103z m39 -43 c0 -5 -7 -10 -15 -10 -8 0 -15 5 -15 10 0 6
7 10 15 10 8 0 15 -4 15 -10z"/>
<path d="M3180 5818 c-16 -29 -42 -84 -57 -121 l-27 -68 -21 59 c-36 100 -76
152 -118 152 -19 0 -37 -43 -37 -86 0 -82 119 -370 166 -400 24 -16 27 -16 52
3 36 27 106 166 128 255 22 91 22 183 0 226 -25 48 -50 42 -86 -20z m76 7 c7
-19 14 -40 13 -47 0 -7 -4 -3 -9 10 -11 25 -42 29 -60 7 -7 -9 -15 -13 -18
-11 -6 7 38 76 49 76 6 0 17 -16 25 -35z m-267 -14 c21 -18 21 -19 1 -24 -33
-9 -35 -36 -6 -150 14 -60 25 -112 23 -114 -6 -5 -55 134 -67 190 -12 56 -2
117 19 117 4 0 18 -8 30 -19z m225 -140 c-10 -25 -19 -40 -22 -33 -2 6 -8 12
-13 12 -12 0 -51 -89 -46 -104 3 -6 10 3 18 19 11 27 13 28 16 8 5 -24 -22
-83 -37 -83 -16 0 -11 71 8 115 9 22 33 69 52 103 32 57 35 61 38 36 2 -15 -4
-48 -14 -73z m-186 57 c16 -28 35 -93 58 -206 7 -36 -13 -17 -41 39 -25 49
-55 148 -55 181 0 28 16 21 38 -14z m227 -40 c-13 -114 -65 -251 -109 -287
-13 -11 -14 -9 -7 16 5 15 23 57 40 93 33 71 61 168 61 212 0 15 5 28 11 28 8
0 9 -19 4 -62z m-143 -90 c-8 -8 -9 -4 -5 13 4 13 8 18 11 10 2 -7 -1 -18 -6
-23z m-22 -195 c-1 -10 -11 2 -24 27 -36 70 -41 101 -7 43 17 -29 31 -60 31
-70z m44 -35 c-7 -11 -34 -10 -34 1 0 6 9 9 19 8 11 0 17 -5 15 -9z"/>
<path d="M1888 5823 c-38 -42 -68 -107 -77 -171 -7 -51 -8 -54 -15 -27 -12 53
-67 154 -98 180 -60 50 -94 25 -85 -63 4 -44 21 -88 78 -200 75 -147 128 -222
157 -222 40 0 110 96 144 199 22 64 34 200 24 255 -14 76 -80 100 -128 49z
m94 -14 c27 -35 26 -180 0 -265 l-19 -59 1 135 c1 162 -21 239 -53 183 -5 -10
-13 -14 -18 -10 -10 11 36 49 55 45 8 -2 24 -15 34 -29z m-307 -9 c3 -6 -4
-14 -17 -19 -27 -10 -33 -7 -25 14 7 17 33 20 42 5z m-6 -85 l0 -20 -9 20 c-5
11 -9 27 -9 35 -1 13 0 13 9 0 5 -8 9 -24 9 -35z m202 7 c-5 -10 -16 -58 -22
-105 -8 -53 -17 -83 -22 -78 -6 6 -5 35 2 74 12 68 38 143 47 134 3 -3 1 -14
-5 -25z m54 -105 c-9 -56 -23 -115 -31 -131 -8 -16 -14 -38 -14 -48 0 -11 -5
-16 -11 -13 -18 11 1 144 34 235 17 46 32 79 35 72 2 -7 -4 -59 -13 -115z
m-236 -31 c-1 -16 -48 86 -48 104 0 8 11 -9 25 -39 13 -29 24 -59 23 -65z m46
-16 c14 -27 23 -50 20 -50 -2 0 -16 23 -30 50 -14 28 -23 50 -20 50 2 0 16
-22 30 -50z m206 -81 c-6 -67 -41 -144 -49 -106 -3 15 47 183 52 175 2 -2 0
-32 -3 -69z m-118 -101 c18 -25 24 -38 15 -38 -8 0 -28 24 -46 53 -33 55 -45
90 -15 47 9 -14 30 -42 46 -62z"/>
<path d="M4384 5818 c-41 -49 -74 -127 -74 -176 0 -26 -4 -41 -10 -37 -5 3
-10 17 -10 31 0 37 -54 138 -91 168 -63 53 -103 11 -82 -87 13 -62 38 -117
111 -247 58 -104 96 -150 123 -150 47 0 137 151 158 265 13 72 14 175 2 208
-25 65 -83 76 -127 25z m91 2 c10 -11 21 -40 25 -64 8 -56 -5 -179 -25 -231
-15 -40 -15 -40 -9 42 7 102 -4 213 -23 238 -14 20 -14 20 -29 1 -7 -11 -17
-16 -21 -12 -9 9 33 46 52 46 6 0 20 -9 30 -20z m-297 -19 c10 -6 6 -11 -17
-19 -24 -9 -31 -8 -31 2 0 25 23 33 48 17z m-8 -86 c0 -17 -2 -17 -10 -5 -5 8
-10 24 -10 35 0 17 2 17 10 5 5 -8 10 -24 10 -35z m200 4 c-6 -13 -17 -64 -24
-114 -8 -58 -16 -84 -21 -73 -13 33 33 233 51 216 2 -3 0 -16 -6 -29z m66 -31
c-12 -96 -39 -218 -47 -218 -5 0 -9 -12 -9 -26 0 -14 -4 -23 -10 -19 -18 11 1
146 32 233 17 45 32 82 35 82 3 0 3 -24 -1 -52z m-251 -96 c-5 -6 -45 84 -44
101 0 7 11 -12 25 -42 13 -30 22 -56 19 -59z m50 -22 c14 -27 23 -50 20 -50
-2 0 -16 23 -30 50 -14 28 -23 50 -20 50 2 0 16 -22 30 -50z m206 -81 c-6 -67
-41 -144 -49 -106 -3 15 47 183 52 175 2 -2 0 -32 -3 -69z m-110 -111 c14 -20
16 -28 7 -28 -13 0 -26 16 -61 80 l-19 35 27 -30 c14 -16 35 -42 46 -57z"/>
<path d="M1030 5194 c-20 -51 -12 -141 20 -222 42 -105 141 -294 162 -306 23
-14 57 18 119 112 64 97 82 155 77 247 -8 157 -98 182 -157 44 -13 -29 -19
-58 -15 -73 3 -13 1 -27 -5 -30 -7 -5 -11 2 -11 17 0 33 -73 177 -106 211 -35
34 -71 34 -84 0z m33 -23 c-15 -26 -15 -34 -1 -110 11 -52 36 -122 69 -192 28
-60 49 -112 47 -115 -5 -5 -103 199 -124 260 -26 72 -19 186 11 186 11 0 11
-5 -2 -29z m295 -39 c2 -7 -3 -12 -11 -12 -9 0 -32 -19 -51 -42 -40 -46 -47
-41 -15 12 33 55 66 74 77 42z m-193 -155 c14 -43 25 -81 25 -85 -2 -28 -91
193 -90 222 1 22 40 -61 65 -137z m21 58 c8 -19 12 -35 9 -35 -6 0 -45 87 -45
98 1 10 19 -22 36 -63z m189 55 c4 -6 4 -34 0 -62 l-7 -52 -14 40 c-18 51 -18
84 0 84 8 0 18 -5 21 -10z m-69 -68 c-22 -23 -29 -10 -9 18 11 16 18 19 21 11
2 -7 -3 -20 -12 -29z m-35 -74 c-14 -40 -14 -98 0 -98 6 0 9 -9 7 -20 -5 -36
-22 -22 -33 28 -12 51 -11 56 12 112 18 42 30 23 14 -22z m119 7 c-10 -44 -38
-115 -45 -115 -2 0 2 18 10 41 8 22 19 59 25 81 14 51 22 45 10 -7z m-33 -7
c-3 -8 -6 -5 -6 6 -1 11 2 17 5 13 3 -3 4 -12 1 -19z m-167 -117 c-1 -13 -4
-12 -15 3 -8 11 -15 27 -15 35 1 13 4 12 15 -3 8 -11 15 -27 15 -35z m57 -135
c-6 -17 -41 -13 -45 5 -2 13 3 15 23 11 14 -2 24 -10 22 -16z"/>
<path d="M3537 5202 c-24 -26 -22 -127 3 -203 26 -76 143 -311 164 -328 8 -7
23 -10 33 -7 24 8 96 106 136 186 29 59 32 73 32 157 0 77 -3 96 -21 120 -27
36 -59 41 -89 13 -32 -30 -67 -114 -59 -144 3 -13 1 -27 -5 -30 -7 -5 -11 2
-11 17 0 33 -73 177 -106 211 -31 31 -55 33 -77 8z m26 -33 c-14 -28 -14 -39
-1 -108 10 -46 37 -123 68 -190 29 -62 50 -114 48 -117 -5 -5 -90 173 -120
250 -12 30 -19 75 -19 113 0 68 5 83 26 83 11 0 11 -6 -2 -31z m295 -37 c2 -7
-3 -12 -11 -12 -9 0 -32 -19 -51 -42 -40 -46 -47 -41 -15 12 33 55 66 74 77
42z m-193 -155 c14 -43 25 -81 25 -85 -2 -28 -91 193 -90 222 1 22 40 -61 65
-137z m21 58 c8 -19 12 -35 9 -35 -6 0 -45 87 -45 98 1 10 19 -22 36 -63z
m191 35 c2 -14 -3 -50 -11 -80 l-13 -55 -1 45 c0 25 -4 62 -7 83 -7 35 -5 39
11 35 12 -2 20 -13 21 -28z m-71 -48 c-22 -23 -29 -10 -9 18 11 16 18 19 21
11 2 -7 -3 -20 -12 -29z m-35 -74 c-14 -40 -14 -74 1 -97 12 -19 5 -51 -10
-51 -10 0 -27 93 -23 120 2 8 10 31 18 50 18 42 30 23 14 -22z m104 -47 c-28
-74 -35 -70 -12 8 12 38 24 63 25 55 2 -9 -4 -37 -13 -63z m-186 -76 c0 -16
-1 -17 -8 -5 -5 8 -12 26 -16 40 -7 24 -7 24 9 5 8 -11 15 -29 15 -40z m59
-127 c-3 -7 -13 -13 -23 -13 -10 0 -20 6 -22 13 -3 7 5 12 22 12 17 0 25 -5
23 -12z"/>
<path d="M137 5163 c-21 -35 -64 -127 -100 -213 l-15 -35 -10 25 c-8 19 -10
-11 -7 -120 2 -80 7 -158 10 -175 5 -23 4 -26 -4 -15 -9 12 -11 10 -11 -12 0
-41 34 -56 69 -31 36 27 107 153 135 243 51 160 56 271 16 338 -27 43 -54 41
-83 -5z m73 -8 c5 -14 12 -38 15 -53 l5 -27 -11 28 c-13 33 -47 36 -74 7 -29
-32 -29 -16 -1 29 30 47 52 52 66 16z m-34 -149 c-6 -38 -45 -106 -46 -78 0 6
-4 12 -9 12 -14 0 -51 -87 -50 -117 l1 -28 11 32 c7 18 18 38 25 45 18 18 5
-46 -20 -96 -15 -30 -22 -36 -29 -25 -25 39 1 126 81 268 37 65 47 62 36 -13z
m15 -127 c-25 -99 -65 -190 -97 -220 -35 -33 -31 -8 16 86 39 78 88 244 92
309 1 17 3 2 5 -32 3 -42 -3 -91 -16 -143z m-127 64 c-11 -44 -24 -76 -29 -71
-5 5 24 98 31 98 2 0 1 -12 -2 -27z m1 -343 c-3 -5 -15 -10 -26 -10 -11 0 -17
5 -14 10 3 6 15 10 26 10 11 0 17 -4 14 -10z"/>
<path d="M2653 5188 c-23 -30 -62 -109 -94 -186 -18 -45 -36 -79 -40 -75 -3 5
-15 34 -24 67 -20 64 -87 162 -118 172 -13 4 -27 -1 -41 -15 -48 -48 -12 -216
93 -437 42 -88 85 -144 112 -144 22 0 71 59 107 128 88 169 123 382 76 462
-21 37 -54 50 -71 28z m55 -25 c6 -10 12 -34 16 -53 5 -33 5 -33 -5 -7 -13 34
-50 36 -79 5 -27 -30 -25 -16 5 32 27 43 49 51 63 23z m-308 -38 l23 -25 -21
0 c-50 0 -48 -56 14 -295 12 -47 -18 18 -48 103 -34 100 -45 175 -29 215 13
34 31 34 61 2z m277 -99 c-6 -60 -35 -116 -48 -94 -11 18 -24 3 -47 -60 -21
-54 -13 -84 8 -32 7 17 16 30 21 30 12 0 1 -46 -23 -94 -15 -30 -22 -36 -29
-25 -16 25 -9 79 17 142 25 60 95 186 103 187 2 0 1 -24 -2 -54z m-233 2 c33
-58 82 -268 62 -268 -12 0 -75 137 -90 197 -29 113 -16 147 28 71z m247 -151
c-23 -91 -70 -194 -101 -222 -31 -28 -26 2 15 82 46 90 70 164 87 259 l13 79
3 -58 c2 -36 -5 -91 -17 -140z m-127 66 c-11 -44 -24 -76 -29 -71 -5 5 24 98
31 98 2 0 1 -12 -2 -27z m-48 -296 c4 -27 1 -24 -24 23 -42 79 -50 115 -12 57
17 -26 33 -62 36 -80z m49 -47 c-3 -5 -13 -10 -21 -10 -8 0 -14 5 -14 10 0 6
9 10 21 10 11 0 17 -4 14 -10z"/>
<path d="M4835 5150 c-30 -33 -24 -126 14 -240 35 -104 122 -293 140 -304 18
-11 13 40 -8 82 -31 62 -36 93 -7 47 l26 -40 0 31 c0 17 -17 69 -39 115 -39
86 -61 158 -61 203 0 64 45 3 77 -104 l22 -75 0 63 c1 74 -28 145 -82 205 -39
42 -56 46 -82 17z m65 -25 l23 -25 -21 0 c-50 0 -48 -56 14 -295 14 -53 -19
22 -51 118 -36 108 -42 157 -25 201 12 33 30 33 60 1z"/>
<path d="M3202 4471 c-7 -4 -37 -59 -68 -121 l-56 -114 -34 74 c-52 112 -98
149 -124 100 -21 -38 33 -232 118 -428 26 -61 28 -63 62 -60 32 3 38 9 76 75
82 144 112 296 80 405 -17 59 -34 81 -54 69z m23 -36 c0 -19 -30 -44 -40 -33
-9 9 17 59 29 55 6 -2 11 -12 11 -22z m-245 -46 c0 -5 -9 -9 -20 -9 -22 0 -23
6 6 -115 8 -33 32 -96 54 -140 38 -76 50 -125 31 -125 -4 0 -32 66 -60 148
-57 158 -74 248 -50 262 14 9 39 -5 39 -21z m246 -68 c-10 -115 -77 -348 -96
-336 -11 7 1 55 50 204 22 68 40 141 40 162 0 22 3 39 6 39 4 0 4 -31 0 -69z
m-205 -44 c12 -37 19 -70 17 -73 -7 -6 -58 128 -58 151 0 32 17 0 41 -78z
m153 -37 c-15 -72 -41 -137 -50 -127 -7 6 22 129 41 173 23 55 26 38 9 -46z
m-117 -32 c-3 -7 -5 -2 -5 12 0 14 2 19 5 13 2 -7 2 -19 0 -25z m19 -34 c-3
-9 -6 -23 -6 -32 -1 -15 -2 -15 -11 1 -12 21 -5 47 12 47 6 0 8 -7 5 -16z m25
-79 c-8 -36 -9 -37 -10 -10 -1 36 12 87 16 65 2 -9 -1 -33 -6 -55z m-6 -115
c3 -11 11 -20 17 -20 6 0 6 -6 -2 -15 -17 -20 -40 -2 -40 31 0 29 16 32 25 4z"/>
<path d="M636 4353 l-58 -117 -34 74 c-52 112 -98 149 -124 100 -21 -39 35
-240 118 -427 25 -58 29 -62 59 -63 38 0 58 25 109 134 63 137 79 264 46 361
-12 36 -23 51 -37 53 -17 2 -31 -17 -79 -115z m89 82 c0 -19 -30 -44 -40 -33
-9 9 17 59 29 55 6 -2 11 -12 11 -22z m-245 -45 c0 -6 -9 -10 -20 -10 -17 0
-19 -5 -14 -32 12 -73 47 -177 80 -236 32 -60 44 -112 25 -112 -13 0 -102 254
-114 326 -13 74 -6 100 23 84 11 -6 20 -15 20 -20z m246 -69 c-10 -116 -77
-348 -96 -336 -10 6 -2 39 52 208 26 82 39 139 36 162 -2 19 0 35 5 35 6 0 7
-28 3 -69z m-205 -44 c12 -37 19 -70 17 -73 -7 -6 -58 128 -58 151 0 32 17 0
41 -78z m162 6 c-8 -60 -32 -138 -48 -159 -21 -27 -19 -4 5 85 30 106 54 148
43 74z m-120 -63 c3 -11 1 -20 -4 -20 -5 0 -9 9 -9 20 0 11 2 20 4 20 2 0 6
-9 9 -20z m13 -46 c-3 -9 -6 -23 -6 -32 -1 -15 -2 -15 -11 1 -12 21 -5 47 12
47 6 0 8 -7 5 -16z m25 -74 c-7 -36 -9 -39 -10 -15 -1 33 11 85 16 70 1 -6 -1
-30 -6 -55z m-1 -122 c13 -17 15 -27 8 -36 -15 -17 -38 3 -38 34 0 30 7 30 30
2z"/>
<path d="M1953 4428 c-4 -6 -36 -68 -70 -137 -54 -111 -62 -123 -69 -101 -4
14 -25 60 -47 103 -42 84 -70 107 -109 86 -18 -10 -20 -18 -16 -74 6 -66 88
-320 140 -432 28 -59 32 -63 63 -63 42 0 62 24 116 136 58 123 82 221 77 318
-7 120 -53 210 -85 164z m42 -25 c4 -12 -1 -24 -16 -36 -31 -25 -48 -7 -25 27
19 30 31 33 41 9z m-285 -48 c13 -16 5 -20 -28 -16 -32 5 33 -232 89 -322 20
-33 29 -60 29 -90 -1 -41 -1 -41 -14 -17 -8 14 -39 99 -70 188 -53 154 -70
245 -49 265 11 11 30 8 43 -8z m277 -127 c-18 -112 -57 -259 -87 -323 l-18
-40 -1 33 c-1 17 22 103 51 190 34 104 51 175 52 209 0 35 4 49 10 43 7 -7 4
-45 -7 -112z m-20 60 c-3 -7 -5 -2 -5 12 0 14 2 19 5 13 2 -7 2 -19 0 -25z
m-224 -20 c49 -135 48 -184 -1 -59 -34 87 -37 101 -23 101 4 0 15 -19 24 -42z
m203 -30 c-3 -13 -10 -48 -16 -78 -11 -54 -48 -145 -57 -137 -5 6 23 130 44
190 17 48 37 65 29 25z m-130 -174 c-11 -28 -17 -9 -20 62 l-3 69 14 -57 c9
-32 12 -65 9 -74z m39 -38 c-4 -31 -11 -56 -16 -56 -12 0 -11 8 3 69 15 66 22
58 13 -13z m-15 -135 c0 -5 7 -17 16 -25 17 -17 11 -36 -11 -36 -18 0 -38 37
-31 56 6 16 26 19 26 5z"/>
<path d="M4460 4430 c-8 -5 -42 -66 -76 -137 -55 -112 -64 -125 -70 -103 -16
52 -86 180 -105 191 -49 26 -77 -16 -65 -99 7 -55 85 -285 132 -392 30 -69 35
-75 64 -78 19 -2 39 3 50 13 29 26 108 195 131 279 41 154 2 365 -61 326z m31
-26 c11 -14 10 -19 -10 -36 -30 -24 -46 -10 -30 25 14 31 21 33 40 11z m-282
-48 c14 -17 0 -29 -24 -20 -15 6 -16 1 -10 -42 10 -73 62 -222 95 -277 19 -30
30 -62 30 -85 0 -59 -17 -28 -75 142 -59 169 -80 263 -63 284 14 16 33 15 47
-2z m277 -132 c-19 -115 -56 -255 -86 -319 l-18 -40 -1 31 c-1 17 22 103 50
190 31 96 52 180 52 211 1 32 6 48 11 43 6 -6 3 -51 -8 -116z m-227 -4 c13
-39 21 -75 19 -81 -5 -14 -68 145 -68 169 1 32 26 -13 49 -88z m208 68 c-3 -7
-5 -2 -5 12 0 14 2 19 5 13 2 -7 2 -19 0 -25z m-21 -45 c-2 -10 -8 -38 -11
-63 -9 -54 -42 -147 -56 -156 -14 -8 -3 53 28 154 14 45 30 82 35 82 5 0 7 -8
4 -17z m-131 -170 c-10 -41 -18 -18 -20 54 l-1 68 14 -48 c7 -27 11 -60 7 -74z
m40 -47 c-4 -31 -11 -56 -16 -56 -12 0 -11 8 3 69 15 66 22 58 13 -13z m-15
-141 c0 -7 8 -18 18 -24 13 -7 14 -12 5 -22 -24 -24 -62 12 -49 46 7 19 26 20
26 0z"/>
<path d="M979 3888 c-18 -29 -20 -44 -15 -118 9 -158 88 -319 178 -366 27 -14
30 -13 54 13 41 44 145 278 164 366 15 75 0 137 -34 137 -45 0 -126 -121 -126
-188 0 -15 -5 -34 -10 -42 -10 -16 -11 -15 -15 36 -4 44 -41 116 -83 158 -46
48 -84 49 -113 4z m89 0 c20 -20 13 -32 -8 -13 -27 24 -34 14 -37 -50 -1 -30
-4 -58 -6 -62 -3 -5 1 -48 9 -98 17 -111 17 -116 -1 -85 -42 79 -60 266 -28
302 18 21 53 24 71 6z m272 8 c0 -2 3 -11 6 -20 5 -13 2 -14 -25 -5 -33 12
-33 29 0 29 10 0 19 -2 19 -4z m-19 -87 l-9 -34 -1 31 c-1 17 2 34 6 37 12 13
14 -1 4 -34z m-195 -21 c22 -42 44 -125 44 -163 -1 -44 -15 -13 -30 65 -6 36
-18 77 -26 92 -15 28 -17 38 -9 38 2 0 12 -15 21 -32z m4 -200 c15 -89 8 -105
-19 -44 -24 51 -72 226 -70 255 2 33 78 -147 89 -211z m199 148 c-11 -38 -22
-66 -25 -63 -3 2 5 34 17 71 12 36 24 65 26 63 2 -2 -6 -34 -18 -71z m-51 -57
c-6 -16 -12 -28 -14 -26 -5 5 13 57 20 57 3 0 0 -14 -6 -31z m-169 -197 c13
-46 8 -50 -17 -15 -17 25 -43 114 -41 146 0 16 46 -85 58 -131z m132 115 c-10
-9 -11 -8 -5 6 3 10 9 15 12 12 3 -3 0 -11 -7 -18z m-27 -109 c-24 -48 -43
-72 -52 -64 -1 2 13 27 33 57 19 29 35 58 35 63 0 5 3 7 6 4 3 -3 -7 -30 -22
-60z"/>
<path d="M3489 3901 c-22 -18 -24 -26 -24 -113 1 -162 80 -334 177 -384 27
-14 30 -14 56 16 37 40 147 290 162 368 16 77 1 132 -35 132 -44 0 -124 -120
-126 -188 0 -15 -4 -36 -9 -47 -9 -21 -10 -19 -15 41 -6 74 -93 194 -139 194
-13 0 -34 -9 -47 -19z m89 -32 c3 -9 -2 -8 -17 5 -27 25 -35 16 -37 -44 -1
-27 -4 -53 -8 -58 -3 -5 1 -53 9 -107 18 -117 18 -117 0 -85 -24 45 -45 146
-45 218 0 64 2 72 27 91 23 19 29 20 47 8 11 -8 22 -20 24 -28z m262 27 c0 -2
3 -11 6 -20 5 -13 2 -14 -25 -5 -33 12 -33 29 0 29 10 0 19 -2 19 -4z m-19
-97 c-10 -23 -10 -23 -10 7 -1 17 2 34 7 38 11 12 14 -18 3 -45z m-195 -11
c21 -41 44 -124 44 -162 0 -46 -10 -25 -27 55 -8 40 -21 86 -29 101 -15 28
-17 38 -9 38 2 0 12 -15 21 -32z m0 -177 c16 -79 18 -111 4 -111 -5 0 -10 6
-10 13 0 8 -7 28 -15 45 -17 33 -65 214 -65 241 1 32 72 -123 86 -188z m207
137 c-8 -29 -19 -60 -24 -68 -14 -24 -11 5 5 47 8 21 17 46 20 56 3 9 8 17 10
17 3 0 -2 -24 -11 -52z m-72 -109 c-11 -24 -20 -41 -20 -37 -1 12 31 89 35 85
3 -2 -4 -24 -15 -48z m-144 -192 c-4 -13 -50 50 -53 72 0 9 -4 39 -8 66 -6 48
-5 46 29 -39 20 -48 34 -93 32 -99z m97 39 c-26 -55 -40 -73 -50 -63 -5 5 69
126 74 122 2 -1 -9 -28 -24 -59z"/>
<path d="M2329 3853 c-9 -11 -14 -41 -13 -92 1 -83 10 -110 114 -324 52 -108
77 -135 105 -119 9 4 36 35 60 68 93 122 126 227 105 329 -27 132 -107 131
-159 -1 -11 -29 -17 -61 -14 -73 3 -13 1 -21 -7 -21 -7 0 -10 6 -7 14 8 20
-80 192 -110 216 -31 24 -56 25 -74 3z m30 -25 c-14 -27 -6 -136 16 -196 8
-24 28 -69 44 -100 35 -70 61 -132 56 -132 -7 0 -79 146 -109 219 -42 103 -48
231 -10 231 12 0 13 -4 3 -22z m291 -43 c10 -13 9 -15 -8 -15 -12 0 -34 -16
-51 -37 -32 -39 -40 -38 -20 0 14 26 50 67 60 67 3 0 12 -7 19 -15z m-194
-149 c28 -80 30 -104 7 -61 -20 38 -73 181 -73 198 1 20 41 -63 66 -137z m15
68 c12 -25 19 -48 16 -50 -2 -2 -14 18 -25 46 -26 63 -18 66 9 4z m196 -16
c-3 -35 -10 -74 -16 -88 -8 -20 -9 -15 -4 22 3 27 1 53 -5 60 -5 7 -10 25 -10
41 0 20 5 27 21 27 18 0 19 -5 14 -62z m-62 -7 c-3 -12 -13 -21 -21 -21 -12 0
-12 4 2 25 19 29 29 27 19 -4z m-42 -108 c-5 -56 -3 -74 5 -69 17 10 15 -16
-2 -39 -13 -17 -15 -14 -26 39 -10 50 -10 64 5 102 9 24 18 44 21 44 2 0 1
-34 -3 -77z m113 5 c-9 -29 -23 -64 -32 -78 -10 -17 -13 -18 -8 -5 4 11 16 48
28 82 25 75 34 76 12 1z m-197 -98 c0 -13 -1 -13 -8 0 -5 8 -12 26 -15 40 l-7
25 15 -25 c9 -14 15 -32 15 -40z m59 -120 c15 0 15 -1 0 -17 -14 -13 -20 -14
-32 -3 -21 16 -20 34 0 26 9 -3 23 -6 32 -6z"/>
<path d="M4826 3848 c-23 -32 -20 -116 6 -190 21 -62 142 -315 158 -331 4 -5
8 76 9 180 l1 188 -40 72 c-56 101 -101 128 -134 81z m33 -20 c-26 -48 3 -184
65 -307 31 -60 56 -121 51 -121 -7 0 -79 146 -109 219 -42 103 -48 231 -10
231 12 0 13 -4 3 -22z m97 -192 c29 -85 30 -104 2 -51 -22 42 -68 171 -68 189
1 19 42 -66 66 -138z m28 34 l7 -25 -14 25 c-8 14 -17 36 -21 50 l-7 25 14
-25 c8 -14 17 -36 21 -50z m-5 -190 c0 -13 -1 -13 -8 0 -5 8 -12 26 -15 40
l-7 25 15 -25 c9 -14 15 -32 15 -40z"/>
<path d="M114 3810 c-41 -16 -98 -127 -87 -169 3 -13 1 -21 -7 -21 -7 0 -10 6
-7 13 3 8 1 20 -4 28 -5 9 -9 -47 -9 -143 l0 -158 26 0 c23 0 25 -2 14 -15 -7
-9 -19 -14 -27 -11 -15 6 -18 -10 -4 -18 19 -12 43 9 97 86 74 105 97 164 97
253 1 109 -37 174 -89 155z m36 -25 c10 -13 9 -15 -8 -15 -13 0 -32 -15 -48
-37 -43 -59 -47 -61 -29 -18 16 39 51 85 66 85 3 0 12 -7 19 -15z m19 -77 c-1
-24 -5 -56 -9 -73 l-8 -30 -1 37 c0 20 -5 39 -10 43 -5 3 -9 19 -9 35 1 22 6
30 20 30 15 0 18 -7 17 -42z m-64 -27 c-3 -12 -13 -21 -21 -21 -12 0 -12 4 2
25 19 29 29 27 19 -4z m-42 -108 c-5 -56 -3 -74 5 -69 16 10 15 -16 -2 -39
-13 -18 -14 -18 -19 1 -17 61 -17 98 -1 140 9 24 18 44 20 44 2 0 1 -34 -3
-77z m113 5 c-9 -29 -23 -64 -32 -78 -10 -17 -13 -18 -8 -5 4 11 16 48 28 82
25 75 34 76 12 1z"/>
<path d="M680 3318 c-16 -29 -42 -84 -56 -122 l-27 -69 -22 62 c-30 82 -69
139 -101 147 -39 10 -49 -9 -48 -84 2 -74 36 -180 102 -312 44 -90 78 -116
112 -85 74 67 164 335 144 429 -21 99 -59 111 -104 34z m76 7 c7 -19 14 -40
13 -47 0 -7 -4 -3 -9 10 -11 26 -42 29 -64 6 -22 -22 -20 -8 5 32 26 43 36 43
55 -1z m-277 -5 c25 -13 34 -38 14 -36 -34 3 -38 -29 -15 -126 12 -51 24 -104
28 -118 10 -43 -12 -1 -36 69 -31 94 -42 163 -31 195 12 29 15 30 40 16z m235
-149 c-10 -25 -19 -40 -22 -33 -8 24 -23 12 -42 -34 -23 -52 -24 -64 -10 -64
6 0 10 9 10 19 0 11 5 23 10 26 16 10 12 -31 -7 -69 -20 -43 -33 -38 -32 12 0
42 18 89 69 180 32 57 35 61 38 36 2 -15 -4 -48 -14 -73z m-184 54 c20 -33 66
-222 56 -232 -2 -3 -20 28 -40 69 -64 135 -77 262 -16 163z m224 -38 c-9 -88
-49 -207 -85 -256 -17 -24 -33 -40 -36 -37 -4 3 12 45 35 93 44 94 72 187 72
241 0 20 4 31 10 27 7 -4 8 -29 4 -68z m-138 -83 c-4 -9 -9 -15 -11 -12 -3 3
-3 13 1 22 4 9 9 15 11 12 3 -3 3 -13 -1 -22z m-25 -191 c5 -13 5 -23 1 -23
-9 0 -52 85 -52 103 0 14 37 -45 51 -80z m44 -43 c-3 -5 -13 -10 -21 -10 -8 0
-14 5 -14 10 0 6 9 10 21 10 11 0 17 -4 14 -10z"/>
<path d="M3182 3320 c-16 -28 -42 -82 -57 -121 l-29 -70 -22 62 c-58 159 -154
204 -154 72 0 -97 120 -384 172 -413 24 -13 29 -13 48 5 74 67 164 335 144
429 -21 98 -59 111 -102 36z m73 10 c8 -16 15 -37 14 -47 0 -14 -2 -13 -9 5
-11 25 -42 29 -60 7 -23 -27 -23 -7 0 29 26 44 35 45 55 6z m-276 -10 c25 -13
34 -38 14 -36 -34 3 -38 -29 -15 -126 12 -51 24 -104 28 -118 10 -46 -12 1
-41 85 -27 78 -37 168 -22 193 10 15 13 15 36 2z m235 -149 c-10 -25 -19 -40
-22 -33 -7 22 -23 13 -36 -20 -24 -57 -28 -78 -17 -78 6 0 11 9 11 19 0 11 5
23 10 26 16 10 12 -31 -7 -69 -20 -43 -33 -38 -32 12 0 42 18 89 69 180 32 57
35 61 38 36 2 -15 -4 -48 -14 -73z m-185 56 c17 -28 26 -60 57 -206 4 -21 3
-23 -10 -12 -21 18 -73 147 -81 204 -9 56 4 62 34 14z m226 -41 c-10 -82 -48
-202 -82 -251 -40 -60 -40 -24 0 63 40 85 67 178 67 230 0 21 4 31 11 26 7 -4
8 -27 4 -68z m-131 -53 c-6 -25 -24 -56 -24 -41 0 10 22 68 26 68 2 0 1 -12
-2 -27z m-60 -167 c14 -25 26 -53 26 -63 -1 -20 -21 12 -46 74 -20 46 -11 41
20 -11z m71 -96 c-3 -5 -13 -10 -21 -10 -8 0 -14 5 -14 10 0 6 9 10 21 10 11
0 17 -4 14 -10z"/>
<path d="M1887 3323 c-37 -40 -77 -132 -75 -176 2 -46 -9 -59 -17 -21 -3 16
-20 57 -36 92 -69 139 -160 151 -146 18 7 -60 131 -314 185 -377 40 -47 58
-49 98 -10 91 89 153 335 113 450 -20 57 -79 68 -122 24z m84 -1 c14 -12 24
-34 28 -63 8 -59 -4 -184 -23 -234 -15 -39 -15 -37 -10 61 4 56 3 108 -2 115
-4 7 -7 29 -6 49 1 19 -5 44 -14 55 -15 20 -15 20 -30 1 -7 -11 -17 -16 -21
-12 -8 8 32 46 47 46 4 0 18 -8 31 -18z m-287 -21 c3 -5 -8 -14 -24 -20 -23
-8 -30 -7 -30 3 0 7 3 16 7 19 9 10 41 8 47 -2z m-15 -91 c0 -9 -4 -8 -9 5 -5
11 -9 27 -9 35 0 9 4 8 9 -5 5 -11 9 -27 9 -35z m202 13 c-5 -11 -15 -58 -22
-106 -7 -48 -16 -87 -21 -87 -10 0 -10 9 1 85 9 63 37 142 47 132 3 -3 1 -14
-5 -24z m65 -35 c-12 -96 -39 -218 -47 -218 -5 0 -9 -12 -9 -26 0 -15 -4 -23
-11 -19 -12 8 -4 119 13 175 19 63 49 140 55 140 3 0 3 -24 -1 -52z m-246
-102 c0 -6 -11 13 -25 42 -14 30 -25 59 -24 65 0 15 49 -91 49 -107z m45 -16
c14 -27 23 -50 20 -50 -2 0 -16 23 -30 50 -14 28 -23 50 -20 50 2 0 16 -22 30
-50z m207 -72 c-4 -65 -43 -153 -50 -115 -3 14 45 177 52 177 1 0 0 -28 -2
-62z m-131 -93 c41 -55 49 -86 12 -46 -22 23 -67 101 -59 101 3 0 24 -25 47
-55z"/>
<path d="M4385 3319 c-41 -49 -67 -109 -75 -169 -6 -49 -7 -52 -14 -25 -12 53
-67 154 -98 180 -59 50 -94 25 -85 -60 6 -62 39 -139 115 -275 58 -104 96
-150 123 -150 21 0 82 66 109 120 48 95 76 287 51 353 -25 64 -83 76 -126 26z
m92 -5 c25 -25 25 -27 20 -137 -3 -67 -11 -128 -20 -152 -16 -39 -16 -37 -10
73 4 72 2 112 -4 112 -6 0 -8 11 -5 25 5 27 -15 85 -29 85 -4 0 -12 -8 -18
-17 -5 -10 -13 -14 -18 -10 -8 9 31 47 49 47 5 0 21 -12 35 -26z m-293 -13 c3
-5 -8 -14 -24 -20 -23 -8 -30 -7 -30 3 0 7 3 16 7 19 9 10 41 8 47 -2z m-14
-86 c0 -17 -2 -17 -10 -5 -5 8 -10 24 -10 35 0 17 2 17 10 5 5 -8 10 -24 10
-35z m201 7 c-5 -10 -16 -58 -22 -105 -7 -48 -17 -87 -21 -87 -12 0 -10 36 7
112 14 68 32 114 42 105 2 -3 0 -14 -6 -25z m49 -137 c-12 -63 -26 -115 -31
-115 -5 0 -9 -12 -9 -26 0 -14 -4 -23 -10 -19 -22 14 0 152 44 265 30 80 32
36 6 -105z m-231 1 c-1 -16 -48 86 -48 104 0 8 11 -9 25 -39 13 -29 24 -59 23
-65z m46 -16 c14 -27 23 -50 20 -50 -2 0 -16 23 -30 50 -14 28 -23 50 -20 50
2 0 16 -22 30 -50z m206 -81 c-6 -67 -41 -144 -49 -106 -3 15 47 183 52 175 2
-2 0 -32 -3 -69z m-131 -85 c23 -30 39 -58 37 -61 -7 -7 -32 23 -63 75 -35 58
-24 53 26 -14z"/>
<path d="M1032 2700 c-18 -30 -15 -133 7 -198 28 -82 138 -307 161 -327 11
-10 26 -15 34 -12 24 10 104 117 139 187 29 59 32 73 32 157 0 77 -3 96 -21
120 -27 36 -59 41 -89 13 -29 -27 -68 -115 -61 -138 3 -9 1 -24 -4 -32 -8 -12
-10 -10 -10 10 0 35 -61 159 -100 203 -36 41 -69 48 -88 17z m41 -7 c-42 -17
-16 -166 57 -323 29 -61 50 -113 48 -116 -7 -6 -108 210 -125 264 -13 47 -18
164 -6 175 3 4 13 7 22 6 10 0 11 -2 4 -6z m285 -61 c2 -7 -3 -12 -11 -12 -9
0 -32 -19 -51 -42 -40 -46 -47 -41 -15 12 33 55 66 74 77 42z m-193 -155 c14
-43 25 -81 25 -85 -2 -28 -91 193 -90 222 1 22 40 -61 65 -137z m21 58 c8 -19
12 -35 9 -35 -6 0 -45 87 -45 98 1 10 19 -22 36 -63z m191 35 c2 -14 -3 -50
-11 -80 l-13 -55 -1 45 c0 25 -4 62 -7 83 -7 35 -5 39 11 35 12 -2 20 -13 21
-28z m-71 -48 c-22 -23 -29 -10 -9 18 11 16 18 19 21 11 2 -7 -3 -20 -12 -29z
m-35 -74 c-14 -40 -14 -74 1 -97 12 -20 4 -56 -11 -47 -10 6 -26 92 -22 116 2
8 10 31 18 50 18 42 30 23 14 -22z m99 -59 c-33 -86 -41 -81 -11 6 14 41 28
70 30 64 1 -5 -7 -37 -19 -70z m-183 -61 c-3 -7 -12 4 -21 24 -22 51 -20 60 5
21 11 -18 19 -38 16 -45z m61 -130 c-3 -7 -13 -13 -23 -13 -10 0 -20 6 -22 13
-3 7 5 12 22 12 17 0 25 -5 23 -12z"/>
<path d="M3530 2701 c-17 -32 -12 -137 10 -202 26 -76 143 -311 164 -328 25
-21 48 -5 103 73 75 105 96 156 100 251 5 87 -11 135 -53 162 -19 12 -25 11
-51 -11 -34 -29 -77 -118 -69 -144 3 -9 1 -24 -4 -32 -8 -12 -10 -10 -10 10 0
35 -61 159 -100 203 -36 41 -73 49 -90 18z m33 -32 c-14 -28 -14 -39 -1 -108
10 -46 37 -123 68 -190 29 -62 50 -114 47 -117 -2 -2 -33 57 -67 132 -55 119
-64 147 -68 210 -5 80 0 104 22 104 12 0 12 -4 -1 -31z m295 -37 c2 -7 -3 -12
-11 -12 -9 0 -32 -19 -51 -42 -40 -46 -47 -41 -15 12 33 55 66 74 77 42z
m-193 -156 c14 -43 24 -80 22 -83 -9 -8 -88 192 -87 220 1 23 40 -58 65 -137z
m21 59 c8 -19 12 -35 9 -35 -6 0 -45 87 -45 98 1 10 19 -22 36 -63z m186 3
c-1 -31 -6 -67 -11 -80 -8 -19 -9 -16 -9 22 0 25 -4 62 -7 83 -7 35 -5 39 11
35 16 -3 19 -12 16 -60z m-66 -16 c-22 -23 -29 -10 -9 18 11 16 18 19 21 11 2
-7 -3 -20 -12 -29z m-35 -74 c-14 -40 -14 -74 1 -97 12 -20 4 -56 -11 -47 -10
6 -26 92 -22 116 2 8 10 31 18 50 18 42 30 23 14 -22z m99 -59 c-33 -86 -41
-81 -11 6 14 41 28 70 30 64 1 -5 -7 -37 -19 -70z m-183 -64 c-2 -5 -12 7 -21
29 -23 54 -20 68 4 21 11 -22 19 -44 17 -50z m61 -127 c-3 -7 -13 -13 -23 -13
-10 0 -20 6 -22 13 -3 7 5 12 22 12 17 0 25 -5 23 -12z"/>
<path d="M152 2688 c-15 -19 -85 -163 -107 -221 -18 -47 -28 -51 -38 -12 -7
30 1 -275 8 -310 5 -23 4 -26 -4 -15 -9 12 -11 10 -11 -12 0 -34 31 -54 60
-38 47 25 115 151 156 287 35 117 39 242 8 293 -21 37 -54 50 -72 28z m56 -25
c6 -10 13 -34 16 -53 7 -34 7 -34 -6 -10 -18 33 -45 37 -74 9 -31 -29 -30 -19
1 31 27 43 49 51 63 23z m-32 -157 c-6 -38 -45 -106 -46 -78 0 21 -19 13 -34
-15 -19 -39 -36 -103 -26 -103 4 0 13 14 20 30 7 17 16 30 21 30 12 0 1 -46
-23 -94 -15 -30 -22 -36 -29 -25 -25 39 1 126 81 268 37 65 47 62 36 -13z m18
-116 c-19 -87 -71 -206 -102 -234 -34 -30 -28 0 17 88 40 78 74 189 88 286 l8
55 3 -60 c2 -32 -4 -93 -14 -135z m-135 38 c-7 -23 -17 -47 -22 -53 -7 -7 -8
-4 -4 6 3 10 11 35 18 58 7 23 14 39 16 37 3 -2 -1 -24 -8 -48z m6 -328 c-3
-5 -13 -10 -21 -10 -8 0 -14 5 -14 10 0 6 9 10 21 10 11 0 17 -4 14 -10z"/>
<path d="M2653 2688 c-16 -19 -87 -165 -108 -221 -10 -26 -20 -45 -23 -42 -3
3 -16 34 -28 70 -25 71 -53 117 -92 153 -31 27 -44 28 -68 1 -45 -50 -6 -224
101 -444 71 -148 106 -165 168 -82 110 146 177 442 121 537 -21 37 -54 50 -71
28z m57 -33 c5 -14 12 -38 16 -53 l6 -27 -14 25 c-18 33 -45 37 -74 9 -31 -29
-31 -13 1 34 30 43 52 47 65 12z m-310 -30 l23 -25 -21 0 c-44 0 -47 -36 -14
-177 17 -70 33 -137 37 -148 5 -15 4 -17 -3 -5 -20 31 -82 224 -88 274 -6 55
7 106 29 106 7 0 24 -11 37 -25z m277 -99 c-6 -61 -34 -116 -49 -94 -10 16
-26 -6 -50 -74 -18 -52 -10 -68 9 -18 14 38 36 40 27 3 -4 -16 -16 -46 -26
-67 -38 -76 -53 15 -17 106 20 51 100 198 108 198 2 0 1 -24 -2 -54z m14 -147
c-25 -99 -65 -190 -97 -220 -33 -31 -32 -6 1 54 41 72 82 196 97 288 l13 84 3
-63 c2 -40 -4 -93 -17 -143z m-251 157 c25 -41 72 -220 67 -256 -3 -20 -11 -8
-45 60 -41 86 -61 152 -62 203 0 37 14 34 40 -7z m124 -93 c-11 -44 -24 -76
-29 -71 -5 5 24 98 31 98 2 0 1 -12 -2 -27z m-48 -288 c11 -44 -10 -26 -33 28
-36 85 -37 95 -4 44 17 -26 33 -58 37 -72z m29 65 c3 -5 1 -10 -4 -10 -6 0
-11 5 -11 10 0 6 2 10 4 10 3 0 8 -4 11 -10z m15 -120 c-20 -13 -43 -13 -35 0
3 6 16 10 28 10 18 0 19 -2 7 -10z"/>
<path d="M4834 2649 c-29 -32 -23 -123 15 -239 35 -104 122 -293 140 -304 18
-11 13 40 -8 82 -31 62 -36 93 -7 47 l26 -40 0 33 c0 18 -18 70 -40 116 -47
98 -76 226 -51 226 17 0 45 -55 68 -130 l22 -75 0 66 c1 77 -30 149 -87 205
-41 40 -52 42 -78 13z m66 -24 l23 -25 -21 0 c-44 0 -47 -36 -14 -177 17 -70
33 -137 37 -148 14 -48 -35 69 -60 141 -31 93 -41 168 -26 207 13 34 31 34 61
2z"/>
<path d="M704 1972 c-6 -4 -37 -59 -69 -122 -54 -107 -59 -113 -68 -90 -50
120 -84 170 -117 170 -33 0 -44 -35 -30 -103 20 -104 128 -390 154 -408 4 -4
20 -4 35 0 52 14 146 214 157 338 10 110 -27 239 -62 215z m21 -37 c0 -19 -30
-44 -40 -33 -9 9 17 59 29 55 6 -2 11 -12 11 -22z m-247 -43 c3 -9 -3 -12 -14
-10 -16 2 -19 -3 -16 -32 5 -59 42 -172 78 -238 32 -60 44 -112 25 -112 -19 0
-121 313 -121 373 0 34 3 38 22 35 12 -2 23 -9 26 -16z m248 -71 c-10 -115
-77 -348 -96 -336 -10 6 2 57 46 190 20 61 38 134 41 163 3 28 8 52 11 52 3 0
2 -31 -2 -69z m-205 -44 c12 -37 19 -70 17 -73 -7 -6 -58 128 -58 151 0 32 17
0 41 -78z m158 -13 c-13 -69 -28 -116 -45 -144 -15 -24 -15 -24 -9 20 7 56 44
170 55 170 4 0 4 -21 -1 -46z m-122 -46 c-3 -8 -6 -5 -6 6 -1 11 2 17 5 13 3
-3 4 -12 1 -19z m19 -44 c-3 -9 -6 -23 -6 -32 -1 -15 -2 -15 -11 1 -12 21 -5
47 12 47 6 0 8 -7 5 -16z m25 -79 c-8 -36 -9 -37 -10 -10 -1 36 12 87 16 65 2
-9 -1 -33 -6 -55z m-6 -115 c3 -11 11 -20 18 -20 8 0 8 -3 0 -11 -18 -18 -43
-2 -43 26 0 30 16 33 25 5z"/>
<path d="M3135 1851 l-59 -121 -22 59 c-30 79 -64 130 -93 138 -36 9 -53 -20
-45 -77 7 -55 74 -259 117 -357 30 -68 34 -73 64 -73 36 0 52 18 102 119 41
79 71 197 71 270 -1 75 -29 155 -55 159 -17 2 -31 -18 -80 -117z m90 84 c0
-19 -30 -44 -40 -33 -9 9 17 59 29 55 6 -2 11 -12 11 -22z m-245 -40 c0 -8 -9
-15 -20 -15 -16 0 -19 -5 -16 -22 3 -13 10 -48 16 -78 7 -30 32 -96 56 -146
42 -86 55 -134 35 -134 -19 0 -121 313 -121 372 0 34 3 38 25 38 16 0 25 -6
25 -15z m246 -72 c-11 -122 -74 -343 -97 -343 -12 0 -5 30 43 180 22 69 42
149 45 178 3 28 8 52 11 52 3 0 2 -30 -2 -67z m-205 -44 c12 -39 19 -72 17
-75 -6 -5 -58 126 -58 144 0 32 22 -5 41 -69z m158 -15 c-13 -69 -28 -116 -45
-144 -15 -25 -15 -24 -10 16 8 56 45 174 55 174 5 0 5 -21 0 -46z m-122 -56
c-3 -7 -5 -2 -5 12 0 14 2 19 5 13 2 -7 2 -19 0 -25z m19 -34 c-3 -9 -6 -23
-6 -32 -1 -15 -2 -15 -11 1 -12 21 -5 47 12 47 6 0 8 -7 5 -16z m26 -79 c-4
-22 -10 -35 -13 -30 -3 6 -1 30 4 55 6 25 12 38 14 30 2 -9 0 -33 -5 -55z m-2
-117 c13 -17 15 -27 8 -36 -15 -17 -38 3 -38 34 0 30 7 30 30 2z"/>
<path d="M1960 1930 c-8 -5 -43 -67 -77 -137 -54 -112 -63 -125 -69 -103 -4
14 -26 61 -48 104 -31 61 -48 82 -69 89 -74 24 -75 -66 -2 -279 26 -76 63
-173 81 -214 30 -69 35 -75 64 -78 43 -5 59 12 113 121 83 165 106 308 71 428
-22 76 -34 88 -64 69z m35 -27 c4 -12 -1 -24 -16 -36 -31 -25 -48 -7 -25 27
19 30 31 33 41 9z m-285 -48 c13 -16 5 -20 -28 -16 -17 3 -10 -50 20 -154 21
-73 73 -191 89 -201 5 -3 9 -24 9 -47 -1 -37 -2 -40 -14 -25 -7 10 -38 93 -69
185 -50 151 -61 200 -58 256 1 21 34 23 51 2z m277 -127 c-17 -111 -57 -258
-87 -323 l-18 -40 -1 33 c-1 17 22 103 50 190 33 100 52 176 52 209 1 33 5 49
11 43 5 -5 3 -48 -7 -112z m-228 -8 c13 -39 21 -75 19 -81 -5 -14 -68 145 -68
169 1 32 26 -13 49 -88z m208 68 c-3 -8 -6 -5 -6 6 -1 11 2 17 5 13 3 -3 4
-12 1 -19z m-21 -50 c-3 -13 -10 -47 -16 -77 -11 -59 -47 -147 -55 -139 -13
12 51 238 67 238 5 0 6 -10 4 -22z m-131 -166 c-9 -38 -16 -20 -20 54 l-3 69
15 -49 c8 -27 12 -60 8 -74z m39 -51 c-4 -28 -10 -51 -15 -51 -12 0 -11 12 2
66 15 58 22 50 13 -15z m-14 -130 c0 -5 7 -17 16 -25 17 -17 11 -36 -11 -36
-18 0 -38 37 -31 56 6 16 26 19 26 5z"/>
<path d="M4461 1931 c-8 -5 -43 -67 -77 -138 -55 -112 -64 -125 -70 -103 -4
14 -25 59 -46 101 -42 85 -71 109 -108 89 -21 -11 -22 -17 -17 -78 7 -69 88
-318 139 -429 27 -56 33 -63 59 -63 40 0 71 36 120 135 73 153 96 303 63 416
-22 75 -34 88 -63 70z m20 -62 c-33 -27 -50 -10 -26 27 16 25 18 25 33 10 16
-16 15 -19 -7 -37z m-271 -14 c13 -16 5 -20 -28 -16 -36 5 41 -255 100 -341
13 -19 18 -41 16 -70 l-3 -43 -31 80 c-80 206 -121 355 -107 393 7 17 38 15
53 -3z m290 -37 c0 -77 -61 -329 -100 -413 l-18 -40 -1 33 c-1 17 22 103 50
190 30 90 52 177 53 204 1 47 16 70 16 26z m-240 -98 c12 -38 20 -74 18 -81
-5 -14 -68 145 -68 169 1 31 26 -13 50 -88z m207 68 c-3 -7 -5 -2 -5 12 0 14
2 19 5 13 2 -7 2 -19 0 -25z m-32 -105 c-14 -73 -51 -171 -61 -161 -7 8 26
145 48 197 10 24 20 42 23 40 2 -2 -3 -37 -10 -76z m-120 -111 c-9 -38 -16
-20 -20 54 l-3 69 15 -49 c8 -27 12 -60 8 -74z m40 -46 c-4 -31 -11 -56 -16
-56 -12 0 -11 8 3 69 15 66 22 58 13 -13z m-15 -135 c0 -5 7 -17 16 -25 17
-17 11 -36 -11 -36 -18 0 -38 37 -31 56 6 16 26 19 26 5z"/>
<path d="M990 1400 c-27 -27 -34 -61 -27 -144 11 -128 70 -260 146 -327 24
-21 48 -39 53 -39 24 0 70 73 126 199 84 192 100 293 49 325 -46 29 -122 -83
-142 -208 -8 -47 -15 -42 -20 13 -5 55 -37 119 -81 165 -40 41 -74 46 -104 16z
m88 -31 c3 -9 -2 -8 -17 5 -11 11 -24 16 -27 13 -16 -15 -20 -147 -7 -231 7
-49 11 -91 9 -93 -2 -3 -14 22 -26 54 -15 39 -24 89 -28 154 -4 95 -4 96 23
117 25 20 31 21 49 9 11 -8 22 -20 24 -28z m262 27 c0 -2 3 -11 6 -20 5 -13 2
-14 -25 -5 -33 12 -33 29 0 29 10 0 19 -2 19 -4z m-19 -87 l-9 -34 -1 31 c-1
17 2 34 6 37 12 13 14 -1 4 -34z m-194 -22 c21 -41 43 -123 43 -161 0 -44 -10
-25 -25 48 -8 36 -23 86 -34 111 -22 51 -10 52 16 2z m3 -199 c15 -89 8 -104
-19 -44 -24 51 -72 226 -70 255 2 34 78 -147 89 -211z m199 148 c-11 -38 -22
-66 -25 -63 -3 2 5 34 17 71 29 86 36 79 8 -8z m-58 -73 c-12 -20 -14 -14 -5
12 4 9 9 14 11 11 3 -2 0 -13 -6 -23z m-20 -46 c-10 -9 -11 -8 -5 6 3 10 9 15
12 12 3 -3 0 -11 -7 -18z m-132 -167 c0 -9 -8 -4 -23 14 -21 25 -47 113 -46
155 1 20 69 -148 69 -169z m108 63 c-25 -57 -48 -93 -58 -93 -13 0 -12 2 29
68 37 57 48 67 29 25z"/>
<path d="M3489 1401 c-22 -18 -24 -26 -24 -113 1 -162 80 -334 177 -384 27
-14 30 -14 56 16 38 41 149 294 163 373 14 73 0 120 -37 125 -41 6 -122 -115
-124 -183 -1 -16 -5 -39 -10 -50 l-9 -20 -1 20 c-6 83 -33 144 -87 198 -41 41
-70 46 -104 18z m79 -13 c20 -20 13 -32 -8 -13 -11 10 -23 15 -27 12 -19 -20
-19 -154 1 -287 6 -43 6 -44 -8 -20 -43 76 -62 266 -29 302 18 21 53 24 71 6z
m272 8 c0 -2 3 -12 6 -20 5 -12 2 -15 -10 -11 -9 3 -23 7 -32 10 -20 6 -8 25
17 25 10 0 19 -2 19 -4z m-19 -87 l-9 -34 -1 31 c-1 17 2 34 6 37 12 13 14 -1
4 -34z m-194 -22 c21 -41 43 -124 43 -162 -1 -43 -16 -13 -25 49 -4 27 -17 73
-30 103 -26 57 -16 64 12 10z m-16 -122 c23 -66 35 -165 20 -165 -6 0 -11 8
-11 18 0 10 -4 22 -9 27 -17 20 -72 218 -71 258 1 17 50 -79 71 -138z m222 83
c-15 -54 -32 -91 -33 -73 0 8 11 43 35 113 2 6 7 12 9 12 3 0 -2 -24 -11 -52z
m-57 -75 c-8 -15 -15 -25 -16 -21 0 12 23 58 27 54 3 -2 -2 -17 -11 -33z m-25
-56 c-10 -9 -11 -8 -5 6 3 10 9 15 12 12 3 -3 0 -11 -7 -18z m-137 -154 l6
-28 -27 33 c-15 19 -28 41 -28 50 -1 9 -5 40 -9 67 l-7 50 29 -72 c17 -40 32
-85 36 -100z m100 25 c-24 -48 -43 -72 -51 -64 -4 4 68 116 74 116 2 0 -9 -24
-23 -52z"/>
<path d="M2329 1353 c-9 -11 -14 -41 -13 -92 1 -83 10 -110 114 -324 52 -108
77 -135 105 -119 24 13 103 122 131 180 38 79 48 147 34 217 -27 132 -107 131
-159 -1 -11 -29 -17 -61 -14 -73 3 -13 1 -21 -7 -21 -7 0 -10 6 -7 14 8 20
-80 192 -110 216 -31 24 -56 25 -74 3z m33 -15 c-15 -15 -15 -97 -1 -158 5
-24 28 -83 51 -130 56 -119 69 -150 62 -150 -9 0 -111 221 -128 279 -26 89
-20 171 12 171 12 0 13 -3 4 -12z m288 -53 c10 -13 9 -15 -8 -15 -12 0 -34
-16 -51 -37 -32 -39 -40 -38 -20 0 14 26 50 67 60 67 3 0 12 -7 19 -15z m-194
-149 c26 -75 30 -96 15 -81 -11 13 -81 200 -81 217 1 21 41 -61 66 -136z m15
68 c12 -25 19 -48 16 -50 -2 -2 -14 18 -25 46 -26 63 -18 66 9 4z m196 -16
c-3 -35 -10 -74 -16 -88 -8 -20 -9 -15 -4 22 3 27 1 53 -5 60 -5 7 -10 25 -10
41 0 20 5 27 21 27 18 0 19 -5 14 -62z m-62 -7 c-3 -12 -13 -21 -21 -21 -12 0
-12 4 2 25 19 29 29 27 19 -4z m-42 -108 c-5 -56 -3 -74 5 -69 17 10 15 -16
-2 -39 -12 -17 -15 -14 -26 38 -11 49 -11 62 4 102 10 25 19 45 22 45 2 0 1
-34 -3 -77z m113 5 c-9 -29 -23 -64 -32 -78 -10 -17 -13 -18 -8 -5 4 11 16 48
28 82 25 75 34 76 12 1z m-211 -59 c9 -17 15 -35 13 -41 -2 -6 -11 8 -20 31
-19 48 -15 54 7 10z m71 -177 c-12 -13 -18 -13 -30 -3 -22 18 -12 29 20 23 23
-4 24 -6 10 -20z"/>
<path d="M4829 1353 c-10 -11 -14 -41 -13 -92 1 -61 7 -90 32 -146 47 -109
132 -284 142 -290 4 -3 8 79 9 180 l2 185 -37 71 c-52 99 -102 133 -135 92z
m31 -18 c-9 -11 -11 -37 -7 -90 5 -74 13 -97 101 -287 35 -77 24 -74 -15 5
-58 114 -98 217 -105 267 -8 64 2 120 23 120 13 0 13 -3 3 -15z m96 -199 c28
-80 30 -104 7 -61 -20 38 -73 181 -73 198 1 20 41 -63 66 -137z m15 68 c12
-25 19 -47 17 -50 -2 -2 -14 19 -25 46 -12 28 -19 50 -17 50 3 0 14 -21 25
-46z m8 -224 c0 -13 -1 -13 -8 0 -5 8 -12 26 -15 40 l-7 25 15 -25 c9 -14 15
-32 15 -40z"/>
<path d="M114 1310 c-41 -16 -86 -98 -86 -157 0 -18 -5 -33 -10 -33 -6 0 -8 6
-5 13 3 8 1 20 -4 28 -6 9 -8 -45 -7 -141 3 -153 3 -154 27 -160 21 -5 22 -7
8 -19 -9 -7 -21 -10 -27 -6 -5 3 -10 2 -10 -4 0 -17 19 -22 38 -12 27 14 121
155 144 213 52 137 10 308 -68 278z m35 -24 c10 -12 8 -15 -10 -18 -13 -2 -38
-22 -56 -46 -36 -48 -41 -48 -17 1 18 35 53 77 65 77 3 0 12 -6 18 -14z m20
-78 c-1 -24 -5 -56 -9 -73 l-8 -30 -1 37 c0 20 -5 39 -11 43 -5 3 -8 19 -7 35
1 21 7 30 20 30 14 0 17 -8 16 -42z m-64 -27 c-3 -12 -13 -21 -21 -21 -12 0
-12 4 2 25 19 29 29 27 19 -4z m-41 -101 c-5 -50 -4 -70 5 -70 15 0 14 -22 -3
-45 -13 -17 -15 -14 -26 39 -10 50 -10 64 5 102 9 24 19 44 21 44 2 0 1 -31
-2 -70z m112 -2 c-9 -29 -23 -64 -32 -78 -10 -17 -13 -18 -8 -5 4 11 16 48 28
82 25 75 34 76 12 1z"/>
<path d="M682 820 c-16 -28 -42 -83 -58 -121 l-28 -71 -17 49 c-46 135 -123
206 -149 137 -17 -43 -11 -91 20 -187 45 -135 109 -258 143 -277 28 -15 29
-14 59 20 98 113 163 376 115 468 -26 47 -51 42 -85 -18z m74 5 c7 -19 14 -40
13 -47 0 -7 -4 -3 -9 10 -11 25 -42 29 -60 7 -7 -9 -15 -13 -18 -11 -6 7 38
76 49 76 6 0 17 -16 25 -35z m-270 -10 c19 -14 19 -14 -3 -30 -29 -20 -29 -33
2 -157 14 -56 23 -103 21 -105 -6 -7 -56 139 -66 194 -5 29 -7 60 -5 68 3 8 7
22 10 30 6 19 16 19 41 0z m228 -144 c-10 -25 -19 -40 -22 -33 -8 24 -23 11
-43 -35 -23 -53 -20 -82 4 -38 15 28 16 28 17 7 0 -27 -26 -82 -40 -82 -16 0
-11 71 8 115 9 22 33 69 52 103 32 57 35 61 38 36 2 -15 -4 -48 -14 -73z
m-184 54 c20 -32 65 -214 55 -223 -14 -15 -79 136 -90 211 -9 57 4 62 35 12z
m225 -39 c-13 -112 -65 -249 -109 -285 -13 -11 -14 -9 -7 16 5 15 23 57 40 93
34 74 61 168 61 218 0 21 4 31 11 26 7 -4 8 -27 4 -68z m-139 -82 c-4 -9 -9
-15 -11 -12 -3 3 -3 13 1 22 4 9 9 15 11 12 3 -3 3 -13 -1 -22z m-52 -138 c14
-25 26 -53 26 -63 -1 -20 -21 12 -46 74 -20 46 -11 41 20 -11z m71 -96 c-3 -5
-13 -10 -21 -10 -8 0 -14 5 -14 10 0 6 9 10 21 10 11 0 17 -4 14 -10z"/>
<path d="M3180 818 c-16 -29 -42 -84 -57 -121 l-27 -68 -22 61 c-58 160 -154
206 -154 73 0 -98 119 -383 172 -413 25 -14 29 -13 53 10 34 32 99 166 121
250 22 87 23 186 1 228 -26 48 -51 42 -87 -20z m76 7 c7 -19 14 -40 13 -47 0
-7 -4 -3 -9 10 -11 25 -42 29 -60 7 -7 -9 -15 -13 -18 -11 -6 7 38 76 49 76 6
0 17 -16 25 -35z m-270 -10 c19 -14 19 -14 -3 -30 -29 -20 -29 -33 2 -157 14
-56 23 -103 21 -105 -5 -6 -54 134 -66 190 -6 26 -7 60 -4 75 12 48 18 51 50
27z m228 -144 c-10 -25 -19 -40 -22 -33 -8 24 -23 11 -43 -35 -23 -53 -20 -82
4 -38 15 28 16 28 17 7 0 -27 -26 -82 -40 -82 -6 0 -10 18 -10 40 0 27 15 69
53 142 45 89 52 99 55 74 2 -16 -4 -50 -14 -75z m-185 56 c17 -28 27 -64 57
-205 7 -36 -13 -17 -40 37 -24 46 -56 153 -56 185 0 26 17 19 39 -17z m222
-58 c-17 -119 -79 -269 -111 -269 -10 0 -4 19 43 120 31 66 57 161 57 209 0
25 3 32 11 24 7 -7 7 -32 0 -84z m-127 -36 c-6 -25 -24 -56 -24 -41 0 10 22
68 26 68 2 0 1 -12 -2 -27z m-60 -167 c14 -25 26 -53 26 -63 -1 -20 -21 12
-46 74 -20 46 -11 41 20 -11z m71 -96 c-3 -5 -13 -10 -21 -10 -8 0 -14 5 -14
10 0 6 9 10 21 10 11 0 17 -4 14 -10z"/>
<path d="M1888 823 c-39 -41 -78 -131 -79 -183 0 -49 -6 -42 -29 37 -7 22 -29
63 -49 89 -69 92 -127 81 -119 -21 5 -57 39 -138 116 -275 58 -104 96 -150
123 -150 23 0 83 68 114 131 66 129 74 357 15 389 -32 17 -65 11 -92 -17z m91
-9 c18 -23 21 -40 20 -123 0 -68 -6 -112 -19 -151 l-20 -55 5 82 c7 104 -3
214 -22 239 -14 19 -14 19 -29 0 -7 -11 -16 -17 -20 -14 -8 9 33 48 50 48 8 0
24 -12 35 -26z m-301 -13 c10 -6 6 -11 -17 -19 -28 -10 -31 -9 -31 9 0 20 24
25 48 10z m-8 -86 c0 -17 -2 -17 -10 -5 -5 8 -10 24 -10 35 0 17 2 17 10 5 5
-8 10 -24 10 -35z m195 -14 c-7 -28 -16 -77 -20 -110 -7 -58 -25 -86 -25 -38
1 55 40 197 54 197 3 0 -2 -22 -9 -49z m71 -13 c-12 -96 -39 -218 -47 -218 -5
0 -9 -12 -9 -26 0 -14 -4 -23 -10 -19 -18 11 1 146 32 233 17 45 33 82 36 82
2 0 2 -24 -2 -52z m-247 -102 c-1 -16 -48 86 -48 104 0 8 11 -9 25 -39 13 -29
24 -59 23 -65z m46 -16 c14 -27 23 -50 20 -50 -2 0 -16 23 -30 50 -14 28 -23
50 -20 50 2 0 16 -22 30 -50z m207 -72 c-4 -65 -43 -153 -50 -115 -3 14 45
177 52 177 1 0 0 -28 -2 -62z m-132 -94 c23 -30 39 -58 37 -61 -7 -7 -32 23
-63 75 -35 58 -24 53 26 -14z"/>
<path d="M4385 819 c-41 -49 -67 -109 -75 -169 -6 -49 -7 -52 -14 -25 -3 17
-21 58 -37 93 -48 95 -113 140 -139 93 -28 -53 -2 -142 93 -316 64 -116 110
-175 138 -175 21 0 82 67 109 120 50 99 75 283 49 359 -21 59 -82 69 -124 20z
m97 -10 c16 -22 20 -42 19 -110 -1 -76 -22 -195 -38 -209 -3 -3 -3 32 1 77 8
101 -2 213 -21 239 -14 19 -14 19 -29 0 -7 -11 -17 -16 -21 -12 -11 10 36 48
55 44 8 -2 24 -15 34 -29z m-304 -11 c-2 -6 -14 -15 -26 -19 -18 -7 -22 -5
-22 11 0 15 7 20 26 20 15 0 24 -5 22 -12z m-8 -83 c0 -17 -2 -17 -10 -5 -5 8
-10 24 -10 35 0 17 2 17 10 5 5 -8 10 -24 10 -35z m195 -19 c-8 -26 -18 -77
-21 -113 -5 -43 -10 -61 -17 -54 -12 12 6 136 28 188 21 50 27 37 10 -21z m55
-108 c-13 -65 -27 -118 -32 -118 -4 0 -8 -12 -8 -26 0 -14 -4 -23 -10 -19 -18
11 1 146 34 235 39 109 45 82 16 -72z m-229 5 c5 -13 6 -23 3 -23 -7 0 -54
107 -54 123 0 11 30 -47 51 -100z m44 -23 c14 -27 25 -53 25 -57 0 -9 -43 63
-53 90 -13 35 3 15 28 -33z m207 -72 c-4 -65 -43 -153 -50 -115 -3 14 45 177
52 177 1 0 0 -28 -2 -62z m-111 -120 c14 -20 16 -28 7 -28 -13 0 -26 16 -61
80 l-19 35 27 -30 c14 -16 35 -42 46 -57z"/>
<path d="M1030 201 c-11 -22 -12 -132 -1 -170 4 -14 12 -26 18 -28 9 -3 9 4 2
29 -10 37 -12 128 -3 152 3 9 12 16 19 16 11 0 10 -6 -2 -30 -12 -26 -13 -41
-3 -100 11 -68 13 -70 41 -70 34 0 34 1 13 64 -24 68 -11 66 20 -4 15 -33 33
-60 41 -60 11 0 10 9 -6 46 -11 26 -18 49 -16 51 3 2 14 -19 26 -47 12 -27 26
-50 31 -50 6 0 10 3 10 6 0 16 -83 162 -105 187 -30 32 -70 36 -85 8z"/>
<path d="M3536 204 c-27 -26 -18 -192 11 -201 9 -3 9 5 2 31 -6 20 -9 64 -7
98 2 50 6 63 20 66 17 3 17 2 2 -25 -15 -25 -15 -37 -4 -101 11 -70 13 -72 41
-72 34 0 34 1 13 64 -24 68 -11 66 20 -4 15 -33 33 -60 41 -60 11 0 10 9 -6
46 -11 26 -18 49 -16 51 3 2 14 -19 26 -47 12 -27 26 -50 31 -50 6 0 10 2 10
5 0 17 -75 150 -101 180 -34 38 -59 44 -83 19z"/>
<path d="M153 188 c-12 -14 -93 -174 -93 -182 0 -4 15 -6 34 -6 30 0 38 6 60
43 l26 42 0 -44 c0 -51 10 -48 20 6 l8 38 1 -42 c1 -37 4 -43 22 -43 21 0 21
4 17 65 -3 37 -14 78 -25 97 -20 35 -53 47 -70 26z m57 -33 c5 -14 12 -38 16
-53 l6 -27 -14 25 c-18 33 -45 37 -74 9 -31 -29 -31 -13 1 34 30 43 52 47 65
12z"/>
<path d="M2657 194 c-4 -4 -7 -14 -7 -23 0 -11 3 -12 11 -4 6 6 10 16 7 23 -2
6 -7 8 -11 4z"/>
<path d="M2704 168 c8 -13 17 -39 21 -58 6 -34 6 -34 -7 -10 -18 34 -45 37
-75 8 -25 -22 -25 -22 -14 -1 13 26 14 33 3 33 -8 0 -72 -121 -72 -135 0 -3
15 -5 34 -5 30 0 38 6 60 43 l26 42 0 -44 c0 -49 8 -49 20 1 l8 33 1 -37 c1
-32 5 -38 22 -38 21 0 22 3 16 65 -6 65 -29 125 -47 125 -6 0 -4 -10 4 -22z"/>
<path d="M4837 153 c-19 -22 -28 -77 -21 -120 9 -51 24 -39 18 15 -6 52 8 102
29 102 7 0 24 -11 37 -25 l23 -25 -21 0 c-28 0 -47 -38 -38 -74 10 -40 36 -33
36 9 0 19 4 35 9 35 5 0 19 -16 31 -35 25 -40 56 -49 44 -12 -12 40 -33 75
-67 111 -38 40 -56 44 -80 19z"/>
<path d="M1292 138 c-22 -24 -61 -104 -62 -125 0 -9 20 -13 66 -13 59 0 65 2
59 18 -5 9 -10 32 -13 50 -4 29 -2 33 14 30 16 -3 19 -12 17 -51 -1 -40 2 -47
18 -47 27 0 26 60 -2 117 -17 35 -26 43 -48 43 -16 0 -37 -10 -49 -22z m66 -6
c2 -7 -3 -12 -11 -12 -9 0 -32 -19 -51 -42 -40 -46 -47 -41 -15 12 33 55 66
74 77 42z m-52 -110 c-22 -23 -29 -10 -9 18 11 16 18 19 21 11 2 -7 -3 -20
-12 -29z"/>
<path d="M2332 148 c-16 -21 -24 -73 -16 -112 9 -53 22 -44 16 13 -3 33 1 60
11 80 15 31 9 42 -11 19z"/>
<path d="M2380 152 c0 -10 21 -32 32 -32 16 0 8 19 -12 30 -11 6 -20 7 -20 2z"/>
<path d="M3792 138 c-22 -24 -61 -104 -62 -125 0 -9 20 -13 65 -13 60 0 80 9
55 25 -5 3 -10 22 -10 41 0 28 3 35 18 32 13 -3 17 -14 16 -51 0 -39 3 -47 18
-47 25 0 24 61 -2 118 -16 35 -24 42 -48 42 -17 0 -37 -9 -50 -22z m66 -6 c2
-7 -3 -12 -11 -12 -9 0 -32 -19 -51 -42 -40 -46 -47 -41 -15 12 34 54 66 73
77 42z m-52 -110 c-22 -23 -29 -10 -9 18 11 16 18 19 21 11 2 -7 -3 -20 -12
-29z"/>
<path d="M2402 103 c-29 -6 -45 -37 -37 -74 9 -42 35 -38 35 6 0 19 4 35 9 35
5 0 19 -16 31 -35 25 -40 56 -49 45 -12 -10 30 -45 87 -53 86 -4 -1 -17 -4
-30 -6z"/>
</g>
</svg>
